<svg xmlns="http://www.w3.org/2000/svg" xmlns:xlink="http://www.w3.org/1999/xlink" width="1080" zoomAndPan="magnify" viewBox="0 0 810 809.999993" height="1080" preserveAspectRatio="xMidYMid meet" version="1.0"><defs><g/></defs><g fill="#737373" fill-opacity="1"><g transform="translate(158.314449, 268.608405)"><g><path d="M 92.953125 -51.109375 C 92.859375 -50.847656 92.757812 -50.59375 92.65625 -50.34375 C 91.664062 -47.769531 90.601562 -45.242188 89.46875 -42.765625 C 83.5625 -30.492188 77.21875 -18.625 70.4375 -7.15625 C 68.238281 -3.457031 65.988281 0.175781 63.6875 3.75 C 61.382812 7.320312 59.066406 10.878906 56.734375 14.421875 C 56.179688 15.253906 55.625 16.085938 55.0625 16.921875 C 55.039062 16.992188 55.015625 17.046875 54.984375 17.078125 C 54.859375 17.328125 54.707031 17.535156 54.53125 17.703125 C 54.363281 17.867188 54.140625 17.953125 53.859375 17.953125 C 53.734375 17.953125 53.597656 17.921875 53.453125 17.859375 C 53.316406 17.796875 53.207031 17.71875 53.125 17.625 C 53.050781 17.539062 53 17.398438 52.96875 17.203125 C 52.9375 17.015625 52.953125 16.863281 53.015625 16.75 C 53.390625 15.9375 53.8125 15.160156 54.28125 14.421875 C 55.320312 12.710938 56.375 11.003906 57.4375 9.296875 C 59.425781 6.117188 61.378906 2.9375 63.296875 -0.25 C 67.566406 -7.363281 71.640625 -14.628906 75.515625 -22.046875 C 79.398438 -29.460938 83.191406 -36.953125 86.890625 -44.515625 C 88.378906 -47.441406 89.601562 -50.570312 90.5625 -53.90625 C 90.757812 -54.476562 90.910156 -55.078125 91.015625 -55.703125 C 91.117188 -56.328125 91.171875 -56.96875 91.171875 -57.625 C 91.078125 -59.050781 90.472656 -59.675781 89.359375 -59.5 C 88.367188 -59.300781 87.4375 -58.988281 86.5625 -58.5625 C 84.488281 -57.5625 82.441406 -56.453125 80.421875 -55.234375 C 69.578125 -48.648438 59.695312 -40.484375 50.78125 -30.734375 C 50.65625 -30.578125 50.515625 -30.421875 50.359375 -30.265625 C 47.285156 -26.921875 44.234375 -23.546875 41.203125 -20.140625 C 38.171875 -16.734375 35.234375 -13.234375 32.390625 -9.640625 C 31.796875 -8.890625 31.171875 -8.191406 30.515625 -7.546875 C 29.828125 -6.816406 29.003906 -6.53125 28.046875 -6.6875 C 27.628906 -6.75 27.289062 -6.953125 27.03125 -7.296875 C 26.769531 -7.640625 26.671875 -8.046875 26.734375 -8.515625 C 26.929688 -9.785156 27.210938 -11.015625 27.578125 -12.203125 C 28.722656 -15.953125 29.9375 -19.65625 31.21875 -23.3125 C 31.40625 -23.882812 31.570312 -24.429688 31.71875 -24.953125 C 32.0625 -26.316406 32.546875 -27.578125 33.171875 -28.734375 C 33.171875 -28.765625 33.15625 -28.78125 33.125 -28.78125 C 32.96875 -28.863281 32.8125 -28.929688 32.65625 -28.984375 C 32.5 -29.035156 32.34375 -28.984375 32.1875 -28.828125 C 31.625 -28.203125 31.082031 -27.550781 30.5625 -26.875 C 26.269531 -21.0625 22.019531 -15.195312 17.8125 -9.28125 C 13.601562 -3.363281 9.492188 2.648438 5.484375 8.765625 C 5.148438 9.359375 4.773438 9.84375 4.359375 10.21875 C 3.941406 10.59375 3.382812 10.71875 2.6875 10.59375 C 2.375 10.507812 2.132812 10.316406 1.96875 10.015625 C 1.800781 9.722656 1.765625 9.4375 1.859375 9.15625 C 2.234375 8.320312 2.640625 7.53125 3.078125 6.78125 C 4.316406 4.632812 5.539062 2.488281 6.75 0.34375 C 9.195312 -3.90625 11.617188 -8.175781 14.015625 -12.46875 C 17.742188 -19.050781 21.070312 -25.976562 24 -33.25 C 25.144531 -36.039062 26.078125 -38.976562 26.796875 -42.0625 C 27.191406 -43.695312 27.359375 -45.40625 27.296875 -47.1875 C 27.117188 -50.039062 26.175781 -52.082031 24.46875 -53.3125 C 22.757812 -54.539062 20.515625 -55.117188 17.734375 -55.046875 C 14.953125 -54.984375 11.863281 -54.414062 8.46875 -53.34375 C 5.082031 -52.269531 1.613281 -50.851562 -1.9375 -49.09375 C -5.5 -47.332031 -8.929688 -45.382812 -12.234375 -43.25 C -15.546875 -41.113281 -18.488281 -38.953125 -21.0625 -36.765625 C -23.632812 -34.578125 -25.644531 -32.523438 -27.09375 -30.609375 C -28.601562 -28.484375 -29.882812 -26.148438 -30.9375 -23.609375 C -31.476562 -22.398438 -31.789062 -21.082031 -31.875 -19.65625 C -31.90625 -19.375 -32.046875 -19.160156 -32.296875 -19.015625 C -32.546875 -18.878906 -32.828125 -18.835938 -33.140625 -18.890625 C -33.640625 -19.046875 -33.953125 -19.4375 -34.078125 -20.0625 C -34.160156 -20.875 -34.097656 -21.617188 -33.890625 -22.296875 C -33.421875 -24.003906 -32.796875 -25.625 -32.015625 -27.15625 C -30.597656 -29.820312 -28.429688 -32.546875 -25.515625 -35.328125 C -22.609375 -38.109375 -19.21875 -40.769531 -15.34375 -43.3125 C -11.476562 -45.863281 -7.441406 -48.140625 -3.234375 -50.140625 C 0.972656 -52.140625 5.085938 -53.691406 9.109375 -54.796875 C 13.128906 -55.910156 16.753906 -56.410156 19.984375 -56.296875 C 23.210938 -56.179688 25.753906 -55.289062 27.609375 -53.625 C 29.472656 -51.96875 30.378906 -49.359375 30.328125 -45.796875 C 30.234375 -43.492188 29.875 -41.300781 29.25 -39.21875 C 28.34375 -36.175781 27.300781 -33.226562 26.125 -30.375 C 24.945312 -27.53125 23.691406 -24.75 22.359375 -22.03125 C 21.953125 -21.175781 21.863281 -20.757812 22.09375 -20.78125 C 22.332031 -20.800781 22.6875 -21.125 23.15625 -21.75 C 24.832031 -23.976562 26.507812 -26.179688 28.1875 -28.359375 C 29.332031 -29.816406 30.5 -31.242188 31.6875 -32.640625 C 31.84375 -32.835938 32 -33.023438 32.15625 -33.203125 C 32.832031 -34.035156 33.648438 -34.59375 34.609375 -34.875 C 35.328125 -35.03125 35.929688 -34.867188 36.421875 -34.390625 C 36.921875 -33.910156 37.09375 -33.191406 36.9375 -32.234375 C 36.90625 -32.140625 36.878906 -32.039062 36.859375 -31.9375 C 36.597656 -30.695312 36.300781 -29.488281 35.96875 -28.3125 C 35.0625 -25.445312 34.128906 -22.601562 33.171875 -19.78125 C 32.703125 -18.320312 32.234375 -16.847656 31.765625 -15.359375 C 31.671875 -15.140625 31.53125 -14.75 31.34375 -14.1875 C 31.15625 -13.695312 30.976562 -13.210938 30.8125 -12.734375 C 30.644531 -12.253906 30.507812 -11.882812 30.40625 -11.625 C 30.539062 -11.726562 31.691406 -13.019531 33.859375 -15.5 C 36.816406 -18.894531 40.3125 -22.863281 44.34375 -27.40625 C 48.382812 -31.945312 51.554688 -35.421875 53.859375 -37.828125 C 58.109375 -42.109375 62.585938 -46 67.296875 -49.5 C 72.003906 -53.007812 76.882812 -56.1875 81.9375 -59.03125 C 83.1875 -59.675781 84.46875 -60.257812 85.78125 -60.78125 C 86.0625 -60.882812 86.335938 -61 86.609375 -61.125 C 87.847656 -61.613281 89.164062 -61.796875 90.5625 -61.671875 C 93.25 -61.421875 94.476562 -59.726562 94.25 -56.59375 C 94.09375 -54.644531 93.660156 -52.816406 92.953125 -51.109375 Z M 33.015625 -28.90625 C 33.085938 -28.851562 33.140625 -28.8125 33.171875 -28.78125 C 33.171875 -28.78125 33.171875 -28.765625 33.171875 -28.734375 C 33.191406 -28.734375 33.203125 -28.75 33.203125 -28.78125 C 33.148438 -28.8125 33.085938 -28.851562 33.015625 -28.90625 Z M 33.015625 -28.90625 "/></g></g></g><g fill="#737373" fill-opacity="1"><g transform="translate(238.131664, 268.608405)"><g><path d="M 15.359375 -10.78125 C 15.691406 -10.59375 15.71875 -10.132812 15.4375 -9.40625 C 15.03125 -8.863281 14.59375 -8.359375 14.125 -7.890625 C 13.65625 -7.429688 13.148438 -7.019531 12.609375 -6.65625 C 12.554688 -6.65625 12.53125 -6.640625 12.53125 -6.609375 C 12.164062 -6.359375 11.78125 -6.140625 11.375 -5.953125 C 8 -4.734375 6.273438 -5.445312 6.203125 -8.09375 C 4.835938 -6.90625 3.921875 -6.175781 3.453125 -5.90625 C 2.335938 -5.238281 1.128906 -4.941406 -0.171875 -5.015625 C -1.128906 -5.078125 -1.78125 -5.367188 -2.125 -5.890625 C -2.46875 -6.421875 -2.4375 -7.140625 -2.03125 -8.046875 C -1.40625 -9.472656 -0.523438 -10.742188 0.609375 -11.859375 C 1.953125 -13.097656 3.441406 -14.09375 5.078125 -14.84375 C 5.953125 -15.28125 6.875 -15.453125 7.84375 -15.359375 C 8.800781 -15.296875 9.378906 -14.75 9.578125 -13.71875 C 9.660156 -13.414062 9.582031 -13.140625 9.34375 -12.890625 C 9.03125 -12.609375 8.671875 -12.546875 8.265625 -12.703125 C 8.234375 -12.703125 8.191406 -12.707031 8.140625 -12.71875 C 8.085938 -12.738281 8.050781 -12.765625 8.03125 -12.796875 C 7.613281 -13.359375 7.195312 -13.59375 6.78125 -13.5 C 6.363281 -13.40625 5.925781 -13.21875 5.46875 -12.9375 C 3.289062 -11.664062 1.671875 -9.894531 0.609375 -7.625 C 0.554688 -7.519531 0.519531 -7.40625 0.5 -7.28125 C 0.488281 -7.164062 0.523438 -7.078125 0.609375 -7.015625 C 0.867188 -6.929688 1.148438 -6.945312 1.453125 -7.0625 C 1.765625 -7.1875 2.078125 -7.363281 2.390625 -7.59375 C 2.703125 -7.820312 2.960938 -8.015625 3.171875 -8.171875 C 3.203125 -8.210938 3.21875 -8.234375 3.21875 -8.234375 C 4.25 -9.097656 5.257812 -9.984375 6.25 -10.890625 C 6.6875 -11.347656 7.226562 -11.609375 7.875 -11.671875 C 8.8125 -11.671875 9.203125 -11.253906 9.046875 -10.421875 C 8.960938 -10.109375 8.867188 -9.796875 8.765625 -9.484375 C 8.398438 -8.140625 8.382812 -7.351562 8.71875 -7.125 C 9.0625 -6.894531 9.582031 -6.894531 10.28125 -7.125 C 10.976562 -7.351562 11.675781 -7.796875 12.375 -8.453125 C 13.070312 -9.117188 13.660156 -9.722656 14.140625 -10.265625 C 14.628906 -10.804688 15.035156 -10.976562 15.359375 -10.78125 Z M 15.359375 -10.78125 "/></g></g></g><g fill="#737373" fill-opacity="1"><g transform="translate(252.172214, 268.608405)"><g><path d="M 13.234375 -10.234375 C 11.347656 -8.003906 9.492188 -6.359375 7.671875 -5.296875 C 5.859375 -4.234375 3.914062 -3.878906 1.84375 -4.234375 C -0.21875 -4.597656 -1.066406 -5.988281 -0.703125 -8.40625 C -0.441406 -9.625 -0.09375 -10.8125 0.34375 -11.96875 C 1.425781 -14.664062 2.523438 -17.347656 3.640625 -20.015625 C 4.003906 -20.972656 4.394531 -21.941406 4.8125 -22.921875 C 4.90625 -23.128906 4.992188 -23.335938 5.078125 -23.546875 C 5.234375 -23.898438 5.390625 -24.257812 5.546875 -24.625 C 5.773438 -25.25 5.53125 -25.578125 4.8125 -25.609375 C 4.394531 -25.609375 3.988281 -25.609375 3.59375 -25.609375 C 3.414062 -25.609375 3.210938 -25.609375 2.984375 -25.609375 C 2.773438 -25.578125 2.554688 -25.546875 2.328125 -25.515625 C 1.960938 -25.492188 1.597656 -25.484375 1.234375 -25.484375 C 0.878906 -25.484375 0.546875 -25.570312 0.234375 -25.75 C 0.148438 -25.78125 0.0820312 -25.832031 0.03125 -25.90625 C -0.0195312 -25.988281 -0.046875 -26.078125 -0.046875 -26.171875 C -0.015625 -26.234375 0.03125 -26.300781 0.09375 -26.375 C 0.15625 -26.457031 0.238281 -26.507812 0.34375 -26.53125 C 0.65625 -26.664062 0.976562 -26.757812 1.3125 -26.8125 C 2.1875 -26.851562 3.054688 -26.890625 3.921875 -26.921875 C 4.253906 -26.921875 4.550781 -26.921875 4.8125 -26.921875 C 5.375 -26.921875 5.789062 -26.941406 6.0625 -26.984375 C 6.34375 -27.023438 6.566406 -27.171875 6.734375 -27.421875 C 6.898438 -27.679688 7.097656 -28.070312 7.328125 -28.59375 C 7.453125 -28.875 7.609375 -29.1875 7.796875 -29.53125 C 8.265625 -30.507812 8.726562 -31.515625 9.1875 -32.546875 C 9.40625 -33.015625 9.625 -33.46875 9.84375 -33.90625 C 10.03125 -34.34375 10.320312 -34.679688 10.71875 -34.921875 C 11.09375 -35.109375 11.425781 -35.09375 11.71875 -34.875 C 11.800781 -34.820312 11.863281 -34.734375 11.90625 -34.609375 C 11.957031 -34.484375 11.984375 -34.367188 11.984375 -34.265625 C 11.984375 -33.710938 11.84375 -33.171875 11.5625 -32.640625 C 11.507812 -32.523438 11.445312 -32.390625 11.375 -32.234375 C 11.1875 -31.722656 10.988281 -31.207031 10.78125 -30.6875 C 10.375 -29.726562 9.984375 -28.75 9.609375 -27.75 C 9.515625 -27.5625 9.515625 -27.394531 9.609375 -27.25 C 9.703125 -27.113281 9.835938 -27.046875 10.015625 -27.046875 C 11.015625 -27.015625 12 -27 12.96875 -27 C 13.457031 -27 13.945312 -27 14.4375 -27 C 16 -26.976562 16.625 -26.757812 16.3125 -26.34375 C 16.09375 -26.101562 15.859375 -25.960938 15.609375 -25.921875 C 15.367188 -25.890625 15.125 -25.894531 14.875 -25.9375 C 14.71875 -25.9375 14.5625 -25.9375 14.40625 -25.9375 C 12.820312 -25.84375 11.253906 -25.78125 9.703125 -25.75 C 8.984375 -25.75 8.503906 -25.425781 8.265625 -24.78125 C 8.003906 -24.15625 7.753906 -23.535156 7.515625 -22.921875 C 7.160156 -22.097656 6.828125 -21.296875 6.515625 -20.515625 C 6.210938 -19.785156 5.90625 -19.046875 5.59375 -18.296875 C 4.789062 -16.398438 4.015625 -14.503906 3.265625 -12.609375 C 2.796875 -11.359375 2.425781 -10.085938 2.15625 -8.796875 C 1.5625 -6.429688 2.472656 -5.523438 4.890625 -6.078125 C 7.265625 -6.640625 9.75 -8.347656 12.34375 -11.203125 C 13.476562 -11.921875 13.773438 -11.597656 13.234375 -10.234375 Z M 13.234375 -10.234375 "/></g></g></g><g fill="#737373" fill-opacity="1"><g transform="translate(264.200915, 268.608405)"><g><path d="M 17.203125 -9.875 C 16.941406 -9.644531 16.671875 -9.4375 16.390625 -9.25 C 15.484375 -8.6875 14.664062 -8.242188 13.9375 -7.921875 C 13.21875 -7.597656 12.363281 -7.265625 11.375 -6.921875 C 9.90625 -6.484375 8.960938 -6.582031 8.546875 -7.21875 C 8.128906 -7.851562 8.0625 -8.738281 8.34375 -9.875 C 8.738281 -11.476562 8.96875 -12.65625 9.03125 -13.40625 C 9.09375 -14.15625 8.84375 -14.410156 8.28125 -14.171875 C 7.726562 -13.941406 6.71875 -13.171875 5.25 -11.859375 C 3.207031 -10.097656 1.457031 -8.078125 0 -5.796875 C -0.1875 -5.492188 -0.410156 -5.242188 -0.671875 -5.046875 C -0.941406 -4.847656 -1.273438 -4.75 -1.671875 -4.75 C -2.054688 -4.75 -2.332031 -4.847656 -2.5 -5.046875 C -2.664062 -5.242188 -2.671875 -5.507812 -2.515625 -5.84375 C -1.679688 -7.675781 -0.828125 -9.5 0.046875 -11.3125 C 1.535156 -14.445312 3.007812 -17.566406 4.46875 -20.671875 C 5.550781 -23.003906 6.625 -25.332031 7.6875 -27.65625 C 8.332031 -29.03125 8.96875 -30.398438 9.59375 -31.765625 C 9.644531 -31.878906 9.707031 -32 9.78125 -32.125 C 9.84375 -32.28125 9.910156 -32.4375 9.984375 -32.59375 C 10.066406 -32.75 10.15625 -32.921875 10.25 -33.109375 C 10.332031 -33.265625 10.488281 -33.390625 10.71875 -33.484375 C 10.957031 -33.578125 11.191406 -33.640625 11.421875 -33.671875 C 11.660156 -33.703125 11.84375 -33.6875 11.96875 -33.625 C 12.144531 -33.5 12.242188 -33.363281 12.265625 -33.21875 C 12.296875 -33.082031 12.273438 -32.9375 12.203125 -32.78125 C 12.171875 -32.757812 12.15625 -32.710938 12.15625 -32.640625 C 11.875 -31.804688 11.578125 -31 11.265625 -30.21875 C 9.472656 -25.894531 7.519531 -21.640625 5.40625 -17.453125 C 5.25 -17.171875 5.0625 -16.832031 4.84375 -16.4375 C 4.539062 -15.875 4.253906 -15.316406 3.984375 -14.765625 C 3.710938 -14.222656 3.625 -13.859375 3.71875 -13.671875 C 3.8125 -13.492188 4.234375 -13.640625 4.984375 -14.109375 C 5.203125 -14.265625 5.40625 -14.421875 5.59375 -14.578125 C 6.1875 -14.972656 6.769531 -15.34375 7.34375 -15.6875 C 7.851562 -16.03125 8.421875 -16.21875 9.046875 -16.25 C 10.523438 -16.34375 11.359375 -15.671875 11.546875 -14.234375 C 11.617188 -13.648438 11.597656 -13.078125 11.484375 -12.515625 C 11.367188 -11.953125 11.234375 -11.394531 11.078125 -10.84375 C 11.046875 -10.6875 11.015625 -10.53125 10.984375 -10.375 C 10.734375 -9.414062 10.800781 -8.863281 11.1875 -8.71875 C 11.582031 -8.582031 12.128906 -8.660156 12.828125 -8.953125 C 13.523438 -9.253906 14.234375 -9.613281 14.953125 -10.03125 C 15.441406 -10.289062 15.875 -10.507812 16.25 -10.6875 C 16.625 -10.875 16.90625 -10.953125 17.09375 -10.921875 C 17.425781 -10.867188 17.578125 -10.734375 17.546875 -10.515625 C 17.523438 -10.296875 17.410156 -10.082031 17.203125 -9.875 Z M 17.203125 -9.875 "/></g></g></g><g fill="#737373" fill-opacity="1"><g transform="translate(280.359194, 268.608405)"><g><path d="M 8.40625 -8.921875 C 7.65625 -8.023438 6.765625 -7.203125 5.734375 -6.453125 C 4.703125 -5.710938 3.535156 -5.207031 2.234375 -4.9375 C 0.941406 -4.675781 -0.0625 -4.769531 -0.78125 -5.21875 C -1.5 -5.675781 -1.640625 -6.679688 -1.203125 -8.234375 C -0.640625 -9.847656 0.132812 -11.378906 1.125 -12.828125 C 1.351562 -13.140625 1.675781 -13.359375 2.09375 -13.484375 C 2.40625 -13.554688 2.675781 -13.503906 2.90625 -13.328125 C 3.144531 -13.148438 3.234375 -12.929688 3.171875 -12.671875 C 2.960938 -12.160156 2.726562 -11.648438 2.46875 -11.140625 C 2.21875 -10.628906 2.050781 -10.296875 1.96875 -10.140625 C 1.476562 -9.242188 1.132812 -8.300781 0.9375 -7.3125 C 0.9375 -6.738281 1.691406 -6.695312 3.203125 -7.1875 C 4.710938 -7.6875 6.179688 -8.597656 7.609375 -9.921875 C 9.035156 -11.242188 9.710938 -11.628906 9.640625 -11.078125 C 9.578125 -10.535156 9.164062 -9.816406 8.40625 -8.921875 Z M 4.71875 -16.015625 C 4.644531 -15.953125 4.5 -15.878906 4.28125 -15.796875 C 4.0625 -15.722656 3.828125 -15.671875 3.578125 -15.640625 C 3.335938 -15.609375 3.144531 -15.644531 3 -15.75 C 2.863281 -15.863281 2.859375 -16.09375 2.984375 -16.4375 C 3.210938 -17.03125 3.445312 -17.546875 3.6875 -17.984375 C 3.9375 -18.429688 4.257812 -18.925781 4.65625 -19.46875 C 4.914062 -19.707031 5.191406 -19.835938 5.484375 -19.859375 C 5.785156 -19.878906 6.03125 -19.800781 6.21875 -19.625 C 6.414062 -19.445312 6.472656 -19.203125 6.390625 -18.890625 C 6.085938 -17.773438 5.53125 -16.816406 4.71875 -16.015625 Z M 4.71875 -16.015625 "/></g></g></g><g fill="#737373" fill-opacity="1"><g transform="translate(288.618337, 268.608405)"><g><path d="M 15.359375 -10.78125 C 15.691406 -10.59375 15.71875 -10.132812 15.4375 -9.40625 C 15.03125 -8.863281 14.59375 -8.359375 14.125 -7.890625 C 13.65625 -7.429688 13.148438 -7.019531 12.609375 -6.65625 C 12.554688 -6.65625 12.53125 -6.640625 12.53125 -6.609375 C 12.164062 -6.359375 11.78125 -6.140625 11.375 -5.953125 C 8 -4.734375 6.273438 -5.445312 6.203125 -8.09375 C 4.835938 -6.90625 3.921875 -6.175781 3.453125 -5.90625 C 2.335938 -5.238281 1.128906 -4.941406 -0.171875 -5.015625 C -1.128906 -5.078125 -1.78125 -5.367188 -2.125 -5.890625 C -2.46875 -6.421875 -2.4375 -7.140625 -2.03125 -8.046875 C -1.40625 -9.472656 -0.523438 -10.742188 0.609375 -11.859375 C 1.953125 -13.097656 3.441406 -14.09375 5.078125 -14.84375 C 5.953125 -15.28125 6.875 -15.453125 7.84375 -15.359375 C 8.800781 -15.296875 9.378906 -14.75 9.578125 -13.71875 C 9.660156 -13.414062 9.582031 -13.140625 9.34375 -12.890625 C 9.03125 -12.609375 8.671875 -12.546875 8.265625 -12.703125 C 8.234375 -12.703125 8.191406 -12.707031 8.140625 -12.71875 C 8.085938 -12.738281 8.050781 -12.765625 8.03125 -12.796875 C 7.613281 -13.359375 7.195312 -13.59375 6.78125 -13.5 C 6.363281 -13.40625 5.925781 -13.21875 5.46875 -12.9375 C 3.289062 -11.664062 1.671875 -9.894531 0.609375 -7.625 C 0.554688 -7.519531 0.519531 -7.40625 0.5 -7.28125 C 0.488281 -7.164062 0.523438 -7.078125 0.609375 -7.015625 C 0.867188 -6.929688 1.148438 -6.945312 1.453125 -7.0625 C 1.765625 -7.1875 2.078125 -7.363281 2.390625 -7.59375 C 2.703125 -7.820312 2.960938 -8.015625 3.171875 -8.171875 C 3.203125 -8.210938 3.21875 -8.234375 3.21875 -8.234375 C 4.25 -9.097656 5.257812 -9.984375 6.25 -10.890625 C 6.6875 -11.347656 7.226562 -11.609375 7.875 -11.671875 C 8.8125 -11.671875 9.203125 -11.253906 9.046875 -10.421875 C 8.960938 -10.109375 8.867188 -9.796875 8.765625 -9.484375 C 8.398438 -8.140625 8.382812 -7.351562 8.71875 -7.125 C 9.0625 -6.894531 9.582031 -6.894531 10.28125 -7.125 C 10.976562 -7.351562 11.675781 -7.796875 12.375 -8.453125 C 13.070312 -9.117188 13.660156 -9.722656 14.140625 -10.265625 C 14.628906 -10.804688 15.035156 -10.976562 15.359375 -10.78125 Z M 15.359375 -10.78125 "/></g></g></g><g fill="#737373" fill-opacity="1"><g transform="translate(302.658887, 268.608405)"><g><path d="M 10.25 -10.734375 C 8.019531 -9.898438 6.410156 -9.222656 5.421875 -8.703125 C 4.703125 -8.347656 4.289062 -8.050781 4.1875 -7.8125 C 4.082031 -7.582031 4.160156 -7.160156 4.421875 -6.546875 C 4.421875 -6.515625 4.441406 -6.472656 4.484375 -6.421875 C 4.796875 -5.671875 4.984375 -4.894531 5.046875 -4.09375 C 5.140625 -2.46875 3.753906 -1.328125 0.890625 -0.671875 C -1.960938 -0.0234375 -3.875 -0.00390625 -4.84375 -0.609375 C -5.8125 -1.222656 -6.109375 -1.992188 -5.734375 -2.921875 C -5.359375 -3.859375 -4.382812 -4.804688 -2.8125 -5.765625 C -1.25 -6.722656 -0.203125 -7.410156 0.328125 -7.828125 C 0.859375 -8.253906 1.019531 -8.726562 0.8125 -9.25 C 0.738281 -9.4375 0.660156 -9.625 0.578125 -9.8125 C 0.390625 -10.25 0.195312 -10.695312 0 -11.15625 C -0.363281 -12.007812 -0.519531 -12.84375 -0.46875 -13.65625 C -0.425781 -14.476562 -0.128906 -15.164062 0.421875 -15.71875 C 0.984375 -16.28125 1.851562 -16.582031 3.03125 -16.625 C 3.695312 -16.65625 4.289062 -16.566406 4.8125 -16.359375 C 5.332031 -16.148438 5.75 -15.773438 6.0625 -15.234375 C 6.3125 -14.847656 6.234375 -14.5 5.828125 -14.1875 C 5.554688 -13.976562 5.265625 -13.953125 4.953125 -14.109375 C 4.753906 -14.191406 4.566406 -14.3125 4.390625 -14.46875 C 4.390625 -14.507812 4.390625 -14.53125 4.390625 -14.53125 C 4.296875 -14.582031 4.21875 -14.640625 4.15625 -14.703125 C 4.070312 -14.828125 3.976562 -14.925781 3.875 -15 C 3.507812 -15.257812 3.140625 -15.335938 2.765625 -15.234375 C 2.390625 -15.128906 2.109375 -14.84375 1.921875 -14.375 C 1.796875 -14.007812 1.734375 -13.640625 1.734375 -13.265625 C 1.765625 -12.796875 1.867188 -12.34375 2.046875 -11.90625 C 2.179688 -11.632812 2.296875 -11.382812 2.390625 -11.15625 C 2.628906 -10.539062 2.828125 -10.113281 2.984375 -9.875 C 3.140625 -9.644531 3.328125 -9.546875 3.546875 -9.578125 C 3.765625 -9.617188 5.765625 -10.335938 9.546875 -11.734375 C 10.367188 -12.003906 10.601562 -11.671875 10.25 -10.734375 Z M 1.078125 -2.640625 C 2.066406 -2.984375 2.484375 -3.648438 2.328125 -4.640625 C 2.328125 -4.710938 2.3125 -4.789062 2.28125 -4.875 C 2.226562 -5.40625 2.113281 -5.816406 1.9375 -6.109375 C 1.769531 -6.398438 1.394531 -6.390625 0.8125 -6.078125 C -0.65625 -5.242188 -2.015625 -4.269531 -3.265625 -3.15625 C -3.347656 -3.050781 -3.425781 -2.957031 -3.5 -2.875 C -3.5 -2.875 -3.507812 -2.851562 -3.53125 -2.8125 C -3.613281 -2.695312 -3.628906 -2.566406 -3.578125 -2.421875 C -3.523438 -2.285156 -3.398438 -2.21875 -3.203125 -2.21875 C -1.742188 -2 -0.316406 -2.140625 1.078125 -2.640625 Z M 1.078125 -2.640625 "/></g></g></g><g fill="#737373" fill-opacity="1"><g transform="translate(312.040433, 268.608405)"><g/></g></g><g fill="#737373" fill-opacity="1"><g transform="translate(328.050464, 268.608405)"><g><path d="M 108.296875 -59.53125 C 108.816406 -59.21875 109.144531 -58.800781 109.28125 -58.28125 C 109.425781 -57.769531 109.34375 -57.253906 109.03125 -56.734375 C 108.5625 -55.984375 107.988281 -55.300781 107.3125 -54.6875 C 105.945312 -53.414062 104.4375 -52.265625 102.78125 -51.234375 C 94.46875 -45.796875 85.507812 -41.664062 75.90625 -38.84375 C 75.46875 -38.71875 75.03125 -38.578125 74.59375 -38.421875 C 73.945312 -38.203125 73.285156 -38.003906 72.609375 -37.828125 C 72.421875 -37.753906 72.25 -37.773438 72.09375 -37.890625 C 71.9375 -38.003906 71.835938 -38.164062 71.796875 -38.375 C 71.796875 -38.476562 71.832031 -38.59375 71.90625 -38.71875 C 71.988281 -38.851562 72.078125 -38.941406 72.171875 -38.984375 C 72.984375 -39.328125 73.828125 -39.640625 74.703125 -39.921875 C 84.328125 -43.109375 93.347656 -47.550781 101.765625 -53.25 C 102.796875 -53.988281 103.789062 -54.765625 104.75 -55.578125 C 104.875 -55.703125 105.015625 -55.804688 105.171875 -55.890625 C 105.671875 -56.296875 106.023438 -56.8125 106.234375 -57.4375 C 106.359375 -57.800781 106.253906 -58.113281 105.921875 -58.375 C 105.535156 -58.613281 105.109375 -58.753906 104.640625 -58.796875 C 104.554688 -58.796875 104.46875 -58.804688 104.375 -58.828125 C 102.539062 -59.140625 100.703125 -59.296875 98.859375 -59.296875 C 97.015625 -59.296875 95.175781 -59.21875 93.34375 -59.0625 C 89.175781 -58.65625 85.023438 -58.09375 80.890625 -57.375 C 76.765625 -56.664062 72.644531 -55.875 68.53125 -55 C 56.363281 -52.425781 44.390625 -49.164062 32.609375 -45.21875 C 28.421875 -43.820312 24.269531 -42.332031 20.15625 -40.75 C 16.039062 -39.164062 11.976562 -37.425781 7.96875 -35.53125 C 6.875 -35 5.785156 -34.472656 4.703125 -33.953125 C 4.117188 -33.640625 3.519531 -33.328125 2.90625 -33.015625 C 2.800781 -32.984375 2.722656 -32.9375 2.671875 -32.875 C 2.253906 -32.65625 1.828125 -32.484375 1.390625 -32.359375 C 1.179688 -32.273438 0.957031 -32.238281 0.71875 -32.25 C 0.488281 -32.269531 0.3125 -32.367188 0.1875 -32.546875 C 0.0625 -32.804688 0.0625 -33.023438 0.1875 -33.203125 C 0.3125 -33.390625 0.484375 -33.546875 0.703125 -33.671875 C 0.722656 -33.703125 0.769531 -33.734375 0.84375 -33.765625 C 1.863281 -34.359375 2.914062 -34.9375 4 -35.5 C 7.488281 -37.257812 11.039062 -38.882812 14.65625 -40.375 C 18.269531 -41.863281 21.925781 -43.265625 25.625 -44.578125 C 40.507812 -49.890625 55.6875 -54.097656 71.15625 -57.203125 C 74.882812 -57.953125 78.613281 -58.632812 82.34375 -59.25 C 86.070312 -59.875 89.828125 -60.34375 93.609375 -60.65625 C 94.703125 -60.707031 95.804688 -60.765625 96.921875 -60.828125 C 97.410156 -60.867188 97.925781 -60.90625 98.46875 -60.9375 C 100.789062 -60.9375 103.117188 -60.765625 105.453125 -60.421875 C 106.441406 -60.296875 107.390625 -60 108.296875 -59.53125 Z M 50.703125 -16.15625 C 50.910156 -16.113281 51.109375 -16.039062 51.296875 -15.9375 C 51.492188 -15.832031 51.640625 -15.710938 51.734375 -15.578125 C 51.828125 -15.453125 51.835938 -15.335938 51.765625 -15.234375 C 51.609375 -15.035156 51.429688 -14.921875 51.234375 -14.890625 C 51.035156 -14.859375 50.84375 -14.84375 50.65625 -14.84375 C 50.613281 -14.84375 50.582031 -14.84375 50.5625 -14.84375 C 47.238281 -14.84375 43.894531 -14.6875 40.53125 -14.375 C 38.769531 -14.21875 36.984375 -14.09375 35.171875 -14 C 34.585938 -13.96875 34.1875 -13.65625 33.96875 -13.0625 C 33.789062 -12.601562 33.585938 -12.140625 33.359375 -11.671875 C 33.242188 -11.398438 33.140625 -11.125 33.046875 -10.84375 C 32.609375 -9.84375 32.191406 -8.863281 31.796875 -7.90625 C 28.378906 0.414062 24.816406 8.675781 21.109375 16.875 C 20.054688 19.15625 18.9375 21.394531 17.75 23.59375 C 17.75 23.625 17.734375 23.648438 17.703125 23.671875 C 17.335938 24.398438 16.875 25.085938 16.3125 25.734375 C 15.8125 26.328125 15.160156 26.53125 14.359375 26.34375 C 14.128906 26.269531 13.9375 26.15625 13.78125 26 C 13.632812 25.851562 13.5625 25.660156 13.5625 25.421875 C 13.601562 24.878906 13.695312 24.347656 13.84375 23.828125 C 13.957031 23.460938 14.082031 23.070312 14.21875 22.65625 C 14.832031 20.644531 15.488281 18.628906 16.1875 16.609375 C 19.289062 7.691406 22.90625 -1.003906 27.03125 -9.484375 C 27.40625 -10.296875 27.851562 -11.085938 28.375 -11.859375 C 28.507812 -12.046875 28.691406 -12.15625 28.921875 -12.1875 C 29.148438 -12.21875 29.375 -12.203125 29.59375 -12.140625 C 29.96875 -12.023438 30.101562 -11.734375 30 -11.265625 C 29.90625 -10.796875 29.710938 -10.257812 29.421875 -9.65625 C 29.140625 -9.050781 28.859375 -8.515625 28.578125 -8.046875 C 28.347656 -7.660156 28.191406 -7.378906 28.109375 -7.203125 C 23.835938 1.960938 21.457031 7.304688 20.96875 8.828125 C 20.78125 9.347656 20.6875 9.703125 20.6875 9.890625 C 20.6875 10.078125 20.75 10.15625 20.875 10.125 C 21.007812 10.09375 21.15625 10.003906 21.3125 9.859375 C 21.46875 9.722656 21.609375 9.578125 21.734375 9.421875 C 21.867188 9.265625 21.957031 9.160156 22 9.109375 C 22.1875 8.640625 22.382812 8.160156 22.59375 7.671875 C 23.289062 6.078125 23.976562 4.488281 24.65625 2.90625 C 24.863281 2.4375 25.066406 1.96875 25.265625 1.5 C 26.722656 -1.9375 28.164062 -5.378906 29.59375 -8.828125 C 29.65625 -8.953125 29.742188 -9.144531 29.859375 -9.40625 C 30.117188 -9.894531 30.390625 -10.472656 30.671875 -11.140625 C 30.953125 -11.804688 31.128906 -12.398438 31.203125 -12.921875 C 31.285156 -13.453125 31.148438 -13.734375 30.796875 -13.765625 C 30.085938 -13.765625 29.375 -13.765625 28.65625 -13.765625 C 28.1875 -13.765625 27.71875 -13.765625 27.25 -13.765625 C 26.863281 -13.765625 26.453125 -13.765625 26.015625 -13.765625 C 24.640625 -13.765625 23.269531 -13.785156 21.90625 -13.828125 C 21.53125 -13.859375 21.1875 -13.953125 20.875 -14.109375 C 20.851562 -14.128906 20.832031 -14.175781 20.8125 -14.25 C 20.789062 -14.332031 20.765625 -14.425781 20.734375 -14.53125 C 20.734375 -14.5625 20.734375 -14.585938 20.734375 -14.609375 C 20.734375 -14.640625 20.75 -14.671875 20.78125 -14.703125 C 20.820312 -14.742188 20.851562 -14.773438 20.875 -14.796875 C 21.0625 -14.929688 21.242188 -15.007812 21.421875 -15.03125 C 21.609375 -15.0625 21.800781 -15.078125 22 -15.078125 C 22.0625 -15.078125 22.117188 -15.078125 22.171875 -15.078125 C 22.953125 -15.109375 23.726562 -15.140625 24.5 -15.171875 C 26.519531 -15.296875 28.539062 -15.367188 30.5625 -15.390625 C 31.25 -15.390625 31.785156 -15.535156 32.171875 -15.828125 C 32.566406 -16.128906 32.867188 -16.59375 33.078125 -17.21875 C 34.078125 -19.800781 35.085938 -22.378906 36.109375 -24.953125 C 37.191406 -27.691406 38.265625 -30.429688 39.328125 -33.171875 C 40.128906 -35.273438 40.890625 -37.382812 41.609375 -39.5 C 42.003906 -40.613281 42.410156 -41.742188 42.828125 -42.890625 C 42.828125 -42.929688 42.835938 -42.96875 42.859375 -43 C 43.015625 -43.488281 43.222656 -43.9375 43.484375 -44.34375 C 43.640625 -44.5625 43.828125 -44.675781 44.046875 -44.6875 C 44.265625 -44.695312 44.492188 -44.675781 44.734375 -44.625 C 44.910156 -44.519531 45.054688 -44.394531 45.171875 -44.25 C 45.285156 -44.113281 45.328125 -43.957031 45.296875 -43.78125 C 45.203125 -43.070312 45.0625 -42.375 44.875 -41.6875 C 43.84375 -38.289062 42.679688 -34.960938 41.390625 -31.703125 C 41.316406 -31.617188 41.265625 -31.53125 41.234375 -31.4375 C 40.066406 -28.351562 38.859375 -25.296875 37.609375 -22.265625 C 37.046875 -20.859375 36.484375 -19.457031 35.921875 -18.0625 C 35.921875 -18.039062 35.921875 -18.03125 35.921875 -18.03125 C 35.765625 -17.613281 35.609375 -17.1875 35.453125 -16.75 C 35.296875 -16.351562 35.285156 -16.066406 35.421875 -15.890625 C 35.566406 -15.710938 35.875 -15.625 36.34375 -15.625 C 36.96875 -15.625 37.585938 -15.660156 38.203125 -15.734375 C 38.484375 -15.734375 38.765625 -15.734375 39.046875 -15.734375 C 39.109375 -15.734375 39.15625 -15.75 39.1875 -15.78125 C 42.757812 -15.90625 46.316406 -16.03125 49.859375 -16.15625 C 50.140625 -16.1875 50.421875 -16.1875 50.703125 -16.15625 Z M 50.703125 -16.15625 "/></g></g></g><g fill="#737373" fill-opacity="1"><g transform="translate(380.612489, 268.608405)"><g><path d="M 3.375 -5.015625 L 3.296875 -5.015625 C 1.253906 -5.046875 -0.0859375 -5.5 -0.734375 -6.375 C -1.390625 -7.257812 -1.363281 -8.4375 -0.65625 -9.90625 C -0.0625 -11.019531 0.6875 -11.992188 1.59375 -12.828125 C 1.894531 -13.117188 2.207031 -13.347656 2.53125 -13.515625 C 2.863281 -13.679688 3.234375 -13.765625 3.640625 -13.765625 C 3.878906 -13.804688 4.15625 -13.765625 4.46875 -13.640625 C 4.5625 -13.609375 4.660156 -13.570312 4.765625 -13.53125 C 5.003906 -13.570312 5.238281 -13.648438 5.46875 -13.765625 C 5.519531 -13.804688 5.597656 -13.84375 5.703125 -13.875 C 6.160156 -14.050781 6.65625 -14.128906 7.1875 -14.109375 C 7.394531 -14.109375 7.613281 -14.109375 7.84375 -14.109375 C 8.664062 -13.984375 9.289062 -13.632812 9.71875 -13.0625 C 10.144531 -12.488281 10.296875 -11.789062 10.171875 -10.96875 C 10.097656 -10.476562 9.941406 -10.015625 9.703125 -9.578125 C 8.078125 -6.660156 6.007812 -5.140625 3.5 -5.015625 Z M 6.71875 -12.609375 C 5.601562 -12.648438 4.609375 -12.328125 3.734375 -11.640625 C 2.867188 -10.953125 2.222656 -10.160156 1.796875 -9.265625 C 1.378906 -8.378906 1.265625 -7.648438 1.453125 -7.078125 C 1.640625 -6.515625 2.226562 -6.359375 3.21875 -6.609375 C 4.332031 -6.941406 5.316406 -7.570312 6.171875 -8.5 C 7.023438 -9.4375 7.546875 -10.328125 7.734375 -11.171875 C 7.929688 -12.015625 7.59375 -12.492188 6.71875 -12.609375 Z M 6.71875 -12.609375 "/></g></g></g><g fill="#737373" fill-opacity="1"><g transform="translate(391.857636, 268.608405)"><g><path d="M 10.25 -10.109375 C 10.71875 -10.566406 11.101562 -10.820312 11.40625 -10.875 C 11.71875 -10.9375 11.921875 -10.890625 12.015625 -10.734375 C 12.109375 -10.578125 12.050781 -10.367188 11.84375 -10.109375 C 10.59375 -8.609375 9.195312 -7.3125 7.65625 -6.21875 C 6.125 -5.132812 4.539062 -4.507812 2.90625 -4.34375 C 1.28125 -4.175781 0.296875 -5.066406 -0.046875 -7.015625 C -0.296875 -8.941406 0.875 -12.878906 3.46875 -18.828125 C 6.070312 -24.773438 8.128906 -29.644531 9.640625 -33.4375 C 9.765625 -33.78125 9.953125 -34.078125 10.203125 -34.328125 C 10.546875 -34.671875 10.953125 -34.75 11.421875 -34.5625 C 11.578125 -34.488281 11.726562 -34.375 11.875 -34.21875 C 12.03125 -34.070312 12.082031 -33.800781 12.03125 -33.40625 C 5.351562 -17.5625 2.117188 -8.945312 2.328125 -7.5625 C 2.535156 -6.175781 3.425781 -5.832031 5 -6.53125 C 6.582031 -7.226562 7.800781 -7.941406 8.65625 -8.671875 C 9.507812 -9.398438 10.039062 -9.878906 10.25 -10.109375 Z M 10.25 -10.109375 "/></g></g></g><g fill="#737373" fill-opacity="1"><g transform="translate(402.42511, 268.608405)"><g><path d="M 18.796875 -11.140625 C 19.097656 -11.066406 19.253906 -10.957031 19.265625 -10.8125 C 19.285156 -10.675781 19.296875 -10.609375 19.296875 -10.609375 C 18.953125 -10.015625 18.5625 -9.472656 18.125 -8.984375 C 17.125 -7.867188 15.960938 -6.976562 14.640625 -6.3125 C 13.984375 -5.945312 13.25 -5.75 12.4375 -5.71875 C 10.539062 -5.6875 9.671875 -6.601562 9.828125 -8.46875 C 9.898438 -8.863281 9.992188 -9.253906 10.109375 -9.640625 C 10.171875 -9.816406 10.21875 -10 10.25 -10.1875 C 10.4375 -10.863281 10.488281 -11.238281 10.40625 -11.3125 C 10.332031 -11.394531 10.113281 -11.203125 9.75 -10.734375 C 9.644531 -10.648438 9.550781 -10.5625 9.46875 -10.46875 C 8.90625 -9.789062 8.328125 -9.125 7.734375 -8.46875 C 6.640625 -7.226562 5.394531 -6.1875 4 -5.34375 C 3.164062 -4.84375 2.285156 -4.578125 1.359375 -4.546875 C -0.171875 -4.484375 -1.023438 -5.1875 -1.203125 -6.65625 C -1.273438 -7.25 -1.25 -7.832031 -1.125 -8.40625 C -0.5 -10.8125 0.742188 -12.640625 2.609375 -13.890625 C 4.472656 -15.148438 6.601562 -15.597656 9 -15.234375 C 9.675781 -15.035156 10.171875 -15.21875 10.484375 -15.78125 C 10.609375 -15.988281 10.734375 -16.207031 10.859375 -16.4375 C 11.515625 -17.550781 12.148438 -18.664062 12.765625 -19.78125 C 13.941406 -21.925781 15.125 -24.085938 16.3125 -26.265625 C 17.269531 -27.972656 18.226562 -29.695312 19.1875 -31.4375 C 19.46875 -31.96875 19.78125 -32.476562 20.125 -32.96875 C 20.28125 -33.21875 20.472656 -33.363281 20.703125 -33.40625 C 20.929688 -33.457031 21.175781 -33.484375 21.4375 -33.484375 C 21.488281 -33.484375 21.550781 -33.484375 21.625 -33.484375 C 21.90625 -33.484375 22.128906 -33.410156 22.296875 -33.265625 C 22.472656 -33.128906 22.507812 -32.941406 22.40625 -32.703125 C 22.21875 -32.109375 22 -31.539062 21.75 -31 C 20.445312 -28.40625 19.21875 -25.773438 18.0625 -23.109375 C 16.914062 -20.453125 15.785156 -17.773438 14.671875 -15.078125 C 14.304688 -14.148438 13.9375 -13.21875 13.5625 -12.28125 C 13.09375 -11.195312 12.703125 -10.082031 12.390625 -8.9375 C 12.304688 -8.6875 12.265625 -8.4375 12.265625 -8.1875 C 12.265625 -7.9375 12.382812 -7.722656 12.625 -7.546875 C 12.78125 -7.441406 12.941406 -7.421875 13.109375 -7.484375 C 13.273438 -7.546875 13.457031 -7.617188 13.65625 -7.703125 C 13.6875 -7.742188 13.726562 -7.78125 13.78125 -7.8125 C 15.125 -8.59375 16.351562 -9.523438 17.46875 -10.609375 C 17.65625 -10.796875 17.847656 -10.953125 18.046875 -11.078125 C 18.253906 -11.203125 18.503906 -11.222656 18.796875 -11.140625 Z M 8.34375 -12.515625 C 8.5 -12.765625 8.546875 -13.003906 8.484375 -13.234375 C 8.421875 -13.472656 8.257812 -13.648438 8 -13.765625 C 7.476562 -14.046875 6.921875 -14.082031 6.328125 -13.875 C 4.878906 -13.4375 3.660156 -12.601562 2.671875 -11.375 C 1.691406 -10.144531 1.160156 -8.789062 1.078125 -7.3125 C 1.109375 -7.238281 1.125 -7.1875 1.125 -7.15625 C 1.125 -7.03125 1.125 -6.90625 1.125 -6.78125 C 1.25 -6.101562 1.664062 -5.972656 2.375 -6.390625 C 3.09375 -6.804688 3.890625 -7.476562 4.765625 -8.40625 C 5.648438 -9.34375 6.441406 -10.226562 7.140625 -11.0625 C 7.847656 -11.90625 8.25 -12.390625 8.34375 -12.515625 Z M 8.34375 -12.515625 "/></g></g></g><g fill="#737373" fill-opacity="1"><g transform="translate(420.129325, 268.608405)"><g><path d="M 15.359375 -10.78125 C 15.691406 -10.59375 15.71875 -10.132812 15.4375 -9.40625 C 15.03125 -8.863281 14.59375 -8.359375 14.125 -7.890625 C 13.65625 -7.429688 13.148438 -7.019531 12.609375 -6.65625 C 12.554688 -6.65625 12.53125 -6.640625 12.53125 -6.609375 C 12.164062 -6.359375 11.78125 -6.140625 11.375 -5.953125 C 8 -4.734375 6.273438 -5.445312 6.203125 -8.09375 C 4.835938 -6.90625 3.921875 -6.175781 3.453125 -5.90625 C 2.335938 -5.238281 1.128906 -4.941406 -0.171875 -5.015625 C -1.128906 -5.078125 -1.78125 -5.367188 -2.125 -5.890625 C -2.46875 -6.421875 -2.4375 -7.140625 -2.03125 -8.046875 C -1.40625 -9.472656 -0.523438 -10.742188 0.609375 -11.859375 C 1.953125 -13.097656 3.441406 -14.09375 5.078125 -14.84375 C 5.953125 -15.28125 6.875 -15.453125 7.84375 -15.359375 C 8.800781 -15.296875 9.378906 -14.75 9.578125 -13.71875 C 9.660156 -13.414062 9.582031 -13.140625 9.34375 -12.890625 C 9.03125 -12.609375 8.671875 -12.546875 8.265625 -12.703125 C 8.234375 -12.703125 8.191406 -12.707031 8.140625 -12.71875 C 8.085938 -12.738281 8.050781 -12.765625 8.03125 -12.796875 C 7.613281 -13.359375 7.195312 -13.59375 6.78125 -13.5 C 6.363281 -13.40625 5.925781 -13.21875 5.46875 -12.9375 C 3.289062 -11.664062 1.671875 -9.894531 0.609375 -7.625 C 0.554688 -7.519531 0.519531 -7.40625 0.5 -7.28125 C 0.488281 -7.164062 0.523438 -7.078125 0.609375 -7.015625 C 0.867188 -6.929688 1.148438 -6.945312 1.453125 -7.0625 C 1.765625 -7.1875 2.078125 -7.363281 2.390625 -7.59375 C 2.703125 -7.820312 2.960938 -8.015625 3.171875 -8.171875 C 3.203125 -8.210938 3.21875 -8.234375 3.21875 -8.234375 C 4.25 -9.097656 5.257812 -9.984375 6.25 -10.890625 C 6.6875 -11.347656 7.226562 -11.609375 7.875 -11.671875 C 8.8125 -11.671875 9.203125 -11.253906 9.046875 -10.421875 C 8.960938 -10.109375 8.867188 -9.796875 8.765625 -9.484375 C 8.398438 -8.140625 8.382812 -7.351562 8.71875 -7.125 C 9.0625 -6.894531 9.582031 -6.894531 10.28125 -7.125 C 10.976562 -7.351562 11.675781 -7.796875 12.375 -8.453125 C 13.070312 -9.117188 13.660156 -9.722656 14.140625 -10.265625 C 14.628906 -10.804688 15.035156 -10.976562 15.359375 -10.78125 Z M 15.359375 -10.78125 "/></g></g></g><g fill="#737373" fill-opacity="1"><g transform="translate(434.169875, 268.608405)"><g><path d="M 18.703125 -11.359375 C 18.816406 -11.378906 18.941406 -11.375 19.078125 -11.34375 C 19.222656 -11.320312 19.332031 -11.257812 19.40625 -11.15625 C 19.488281 -11 19.484375 -10.84375 19.390625 -10.6875 C 19.296875 -10.539062 19.160156 -10.421875 18.984375 -10.328125 C 17.710938 -9.710938 16.429688 -9.070312 15.140625 -8.40625 C 13.628906 -7.632812 12.113281 -6.859375 10.59375 -6.078125 C 10.363281 -5.992188 10.144531 -5.890625 9.9375 -5.765625 C 9.59375 -5.578125 9.253906 -5.40625 8.921875 -5.25 C 8.140625 -4.875 7.625 -4.28125 7.375 -3.46875 C 6.695312 -1.550781 5.984375 0.351562 5.234375 2.25 C 4.273438 4.769531 3.070312 7.175781 1.625 9.46875 C 0.820312 10.78125 -0.148438 11.945312 -1.296875 12.96875 C -2.660156 14.25 -4.226562 15.054688 -6 15.390625 C -8.914062 15.984375 -11.726562 15.796875 -14.4375 14.828125 C -15.5625 14.429688 -16.523438 13.796875 -17.328125 12.921875 C -18.410156 11.742188 -18.457031 10.488281 -17.46875 9.15625 C -17.03125 8.582031 -16.546875 8.050781 -16.015625 7.5625 C -14.816406 6.476562 -13.515625 5.503906 -12.109375 4.640625 C -7.097656 1.429688 -1.953125 -1.519531 3.328125 -4.21875 C 3.359375 -4.21875 3.375 -4.21875 3.375 -4.21875 C 3.914062 -4.5 4.457031 -4.796875 5 -5.109375 C 5.082031 -5.171875 5.203125 -5.316406 5.359375 -5.546875 C 5.515625 -5.785156 5.628906 -6.019531 5.703125 -6.25 C 5.785156 -6.488281 5.765625 -6.660156 5.640625 -6.765625 C 5.523438 -6.867188 5.234375 -6.816406 4.765625 -6.609375 C 4.578125 -6.535156 4.40625 -6.457031 4.25 -6.375 C 3.84375 -6.175781 3.4375 -6 3.03125 -5.84375 C 0.613281 -5.269531 -0.59375 -6.203125 -0.59375 -8.640625 C -0.539062 -10.109375 -0.101562 -11.429688 0.71875 -12.609375 C 1.550781 -13.785156 2.609375 -14.707031 3.890625 -15.375 C 5.179688 -16.050781 6.570312 -16.3125 8.0625 -16.15625 C 8.21875 -16.15625 8.375 -16.132812 8.53125 -16.09375 C 8.945312 -16.039062 9.363281 -16.015625 9.78125 -16.015625 C 10.195312 -16.015625 10.625 -16.101562 11.0625 -16.28125 C 11.519531 -16.46875 11.863281 -16.414062 12.09375 -16.125 C 12.332031 -15.832031 12.375 -15.457031 12.21875 -15 C 11.8125 -14.125 11.410156 -13.234375 11.015625 -12.328125 C 10.734375 -11.773438 10.460938 -11.203125 10.203125 -10.609375 C 9.921875 -9.984375 9.644531 -9.347656 9.375 -8.703125 C 9 -7.859375 8.941406 -7.414062 9.203125 -7.375 C 9.472656 -7.332031 9.9375 -7.476562 10.59375 -7.8125 C 10.675781 -7.84375 10.765625 -7.875 10.859375 -7.90625 C 12.046875 -8.46875 13.238281 -9.023438 14.4375 -9.578125 C 15.289062 -9.953125 16.132812 -10.335938 16.96875 -10.734375 C 17.53125 -10.992188 18.109375 -11.203125 18.703125 -11.359375 Z M 3.640625 0.015625 C 4.078125 -1.222656 4.265625 -2.035156 4.203125 -2.421875 C 4.140625 -2.804688 3.867188 -2.90625 3.390625 -2.71875 C 2.910156 -2.539062 2.28125 -2.207031 1.5 -1.71875 C 1.007812 -1.40625 0.46875 -1.09375 -0.125 -0.78125 C -3.695312 1.15625 -7.175781 3.222656 -10.5625 5.421875 C -12.0625 6.296875 -13.398438 7.351562 -14.578125 8.59375 C -15.816406 9.925781 -15.769531 11.109375 -14.4375 12.140625 C -13.664062 12.753906 -12.800781 13.1875 -11.84375 13.4375 C -10.894531 13.6875 -9.847656 13.8125 -8.703125 13.8125 C -7.359375 13.90625 -6.113281 13.65625 -4.96875 13.0625 C -3.832031 12.46875 -2.773438 11.582031 -1.796875 10.40625 C -1.222656 9.625 -0.664062 8.816406 -0.125 7.984375 C 1.425781 5.441406 2.679688 2.785156 3.640625 0.015625 Z M 2.25 -7.46875 C 2.613281 -7.320312 3.144531 -7.457031 3.84375 -7.875 C 4.539062 -8.300781 5.253906 -8.882812 5.984375 -9.625 C 6.722656 -10.363281 7.304688 -11.117188 7.734375 -11.890625 C 8.171875 -12.671875 8.28125 -13.332031 8.0625 -13.875 C 8.007812 -14.03125 7.921875 -14.171875 7.796875 -14.296875 C 7.566406 -14.566406 7.3125 -14.691406 7.03125 -14.671875 C 6.757812 -14.660156 6.46875 -14.613281 6.15625 -14.53125 C 5.125 -14.125 4.210938 -13.421875 3.421875 -12.421875 C 2.640625 -11.421875 2.117188 -10.429688 1.859375 -9.453125 C 1.597656 -8.484375 1.726562 -7.820312 2.25 -7.46875 Z M 2.25 -7.46875 "/></g></g></g><g fill="#737373" fill-opacity="1"><g transform="translate(452.255293, 268.608405)"><g><path d="M 12.0625 -8.125 C 11.25 -7.320312 10.296875 -6.632812 9.203125 -6.0625 C 8.117188 -5.488281 7.207031 -5.113281 6.46875 -4.9375 C 5.738281 -4.769531 4.988281 -4.671875 4.21875 -4.640625 C 2.96875 -4.578125 1.820312 -4.742188 0.78125 -5.140625 C -0.925781 -5.835938 -1.519531 -7.160156 -1 -9.109375 C -0.5 -10.785156 0.503906 -12.097656 2.015625 -13.046875 C 3.523438 -13.992188 5.082031 -14.453125 6.6875 -14.421875 C 6.6875 -14.421875 6.703125 -14.421875 6.734375 -14.421875 C 7.140625 -14.453125 7.53125 -14.425781 7.90625 -14.34375 C 8.519531 -14.113281 8.910156 -13.742188 9.078125 -13.234375 C 9.253906 -12.722656 9.144531 -12.160156 8.75 -11.546875 C 7.84375 -10.171875 6.613281 -9.40625 5.0625 -9.25 C 4.03125 -9.15625 3.035156 -9.207031 2.078125 -9.40625 C 1.890625 -9.4375 1.722656 -9.382812 1.578125 -9.25 C 1.441406 -9.125 1.359375 -8.972656 1.328125 -8.796875 C 1.046875 -7.578125 1.421875 -6.796875 2.453125 -6.453125 C 3.722656 -6.015625 5.046875 -6.015625 6.421875 -6.453125 C 8.003906 -6.953125 9.503906 -7.882812 10.921875 -9.25 C 12.347656 -10.625 13.171875 -11.265625 13.390625 -11.171875 C 13.609375 -11.078125 13.675781 -10.8125 13.59375 -10.375 C 13.394531 -9.6875 12.882812 -8.9375 12.0625 -8.125 Z M 3.046875 -11.546875 C 2.960938 -11.441406 2.898438 -11.328125 2.859375 -11.203125 C 2.828125 -11.085938 2.875 -10.984375 3 -10.890625 C 3.5 -10.609375 4.035156 -10.503906 4.609375 -10.578125 C 5.191406 -10.660156 5.679688 -10.878906 6.078125 -11.234375 C 6.484375 -11.597656 6.660156 -12.039062 6.609375 -12.5625 C 6.566406 -12.738281 6.46875 -12.851562 6.3125 -12.90625 C 6.15625 -12.957031 6 -12.96875 5.84375 -12.9375 C 4.800781 -12.757812 3.867188 -12.296875 3.046875 -11.546875 Z M 3.046875 -11.546875 "/></g></g></g><g fill="#737373" fill-opacity="1"><g transform="translate(464.580487, 268.608405)"><g><path d="M 10.15625 -13 C 10.03125 -12.03125 9.570312 -11.394531 8.78125 -11.09375 C 8 -10.800781 7.742188 -11.191406 8.015625 -12.265625 C 8.285156 -13.335938 7.800781 -13.609375 6.5625 -13.078125 C 5.320312 -12.546875 4.300781 -11.878906 3.5 -11.078125 C 2.25 -9.804688 1.144531 -8.4375 0.1875 -6.96875 C 0.09375 -6.84375 0.015625 -6.738281 -0.046875 -6.65625 C -0.328125 -6.238281 -0.609375 -5.847656 -0.890625 -5.484375 C -1.078125 -5.234375 -1.289062 -5.070312 -1.53125 -5 C -1.78125 -4.9375 -2.03125 -4.929688 -2.28125 -4.984375 C -2.519531 -5.003906 -2.703125 -5.09375 -2.828125 -5.25 C -2.960938 -5.40625 -2.976562 -5.585938 -2.875 -5.796875 C -2.71875 -6.179688 -2.535156 -6.570312 -2.328125 -6.96875 C -1.054688 -9.320312 0.234375 -11.6875 1.546875 -14.0625 C 1.578125 -14.09375 1.59375 -14.117188 1.59375 -14.140625 C 1.769531 -14.515625 1.988281 -14.859375 2.25 -15.171875 C 2.53125 -15.472656 2.851562 -15.59375 3.21875 -15.53125 C 3.582031 -15.476562 3.828125 -15.265625 3.953125 -14.890625 C 4.109375 -14.390625 4.242188 -14.109375 4.359375 -14.046875 C 4.472656 -13.984375 4.726562 -14.03125 5.125 -14.1875 C 5.96875 -14.5 6.789062 -14.71875 7.59375 -14.84375 C 8.40625 -14.96875 9.066406 -14.9375 9.578125 -14.75 C 10.097656 -14.5625 10.289062 -13.976562 10.15625 -13 Z M 10.15625 -13 "/></g></g></g><g fill="#737373" fill-opacity="1"><g transform="translate(475.169133, 268.608405)"><g/></g></g><g fill="#737373" fill-opacity="1"><g transform="translate(491.179164, 268.608405)"><g><path d="M 114.46875 -19.359375 C 111.769531 -19.671875 109.050781 -19.828125 106.3125 -19.828125 C 105.113281 -19.867188 103.894531 -19.898438 102.65625 -19.921875 C 91.34375 -20.390625 80.003906 -20.515625 68.640625 -20.296875 C 68.078125 -20.296875 67.613281 -20.296875 67.25 -20.296875 C 66.625 -20.335938 66.171875 -20.332031 65.890625 -20.28125 C 65.609375 -20.226562 65.378906 -20.070312 65.203125 -19.8125 C 65.035156 -19.550781 64.84375 -19.125 64.625 -18.53125 C 64.46875 -18.195312 64.28125 -17.773438 64.0625 -17.265625 C 62.175781 -13.140625 60.441406 -8.945312 58.859375 -4.6875 C 57.828125 -1.925781 57.03125 0.898438 56.46875 3.796875 C 56.25 4.691406 56.171875 5.566406 56.234375 6.421875 C 56.304688 7.273438 56.691406 8.039062 57.390625 8.71875 C 57.492188 8.789062 57.53125 8.878906 57.5 8.984375 C 57.46875 9.097656 57.398438 9.195312 57.296875 9.28125 C 57.203125 9.375 57.101562 9.4375 57 9.46875 C 55.3125 9.71875 54.300781 9.117188 53.96875 7.671875 C 53.769531 6.847656 53.734375 6.003906 53.859375 5.140625 C 53.859375 5.078125 53.859375 5.03125 53.859375 5 C 53.984375 3.519531 54.242188 2.046875 54.640625 0.578125 C 55.046875 -0.878906 55.5 -2.34375 56 -3.8125 C 57.59375 -8.21875 59.347656 -12.566406 61.265625 -16.859375 C 61.367188 -17.046875 61.445312 -17.226562 61.5 -17.40625 C 61.601562 -17.625 61.710938 -17.84375 61.828125 -18.0625 C 61.984375 -18.375 62.125 -18.6875 62.25 -19 C 62.375 -19.3125 62.421875 -19.632812 62.390625 -19.96875 C 62.234375 -20.09375 62.078125 -20.171875 61.921875 -20.203125 C 61.765625 -20.234375 61.613281 -20.234375 61.46875 -20.203125 C 61.4375 -20.203125 61.398438 -20.203125 61.359375 -20.203125 C 60.023438 -20.203125 58.691406 -20.1875 57.359375 -20.15625 C 56.984375 -20.15625 56.59375 -20.15625 56.1875 -20.15625 C 55.695312 -20.132812 55.28125 -19.976562 54.9375 -19.6875 C 54.601562 -19.40625 54.28125 -19.0625 53.96875 -18.65625 C 53.550781 -18.132812 53.140625 -17.613281 52.734375 -17.09375 C 50.992188 -14.875 49.242188 -12.675781 47.484375 -10.5 C 44.867188 -7.34375 42.140625 -4.296875 39.296875 -1.359375 C 36.453125 1.578125 33.4375 4.332031 30.25 6.90625 C 26.238281 10.207031 21.976562 13.113281 17.46875 15.625 C 10.582031 19.320312 3.363281 21.070312 -4.1875 20.875 C -11.3125 20.726562 -17.734375 18.8125 -23.453125 15.125 C -25.054688 14.09375 -26.476562 12.847656 -27.71875 11.390625 C -28.550781 10.359375 -29.210938 9.242188 -29.703125 8.046875 C -30.191406 6.859375 -30.4375 5.566406 -30.4375 4.171875 C -30.363281 2.492188 -29.976562 0.941406 -29.28125 -0.484375 C -28.582031 -1.921875 -27.613281 -3.226562 -26.375 -4.40625 C -24.664062 -6.0625 -22.785156 -7.457031 -20.734375 -8.59375 C -18.742188 -9.75 -16.691406 -10.757812 -14.578125 -11.625 C -12.472656 -12.5 -10.347656 -13.273438 -8.203125 -13.953125 C -4.722656 -15.066406 -1.210938 -16.003906 2.328125 -16.765625 C 5.867188 -17.535156 9.425781 -18.1875 13 -18.71875 C 21.476562 -19.894531 29.972656 -20.671875 38.484375 -21.046875 C 42.828125 -21.316406 47.160156 -21.453125 51.484375 -21.453125 C 52.671875 -21.421875 53.585938 -21.921875 54.234375 -22.953125 C 55.378906 -24.566406 56.53125 -26.1875 57.6875 -27.8125 C 59.476562 -30.289062 61.242188 -32.816406 62.984375 -35.390625 C 71.054688 -47.453125 78.796875 -59.707031 86.203125 -72.15625 C 86.816406 -73.21875 87.421875 -74.289062 88.015625 -75.375 C 88.296875 -75.925781 88.59375 -76.484375 88.90625 -77.046875 C 89.28125 -77.765625 89.867188 -78.164062 90.671875 -78.25 C 91.109375 -78.25 91.425781 -78.125 91.625 -77.875 C 91.832031 -77.632812 91.859375 -77.3125 91.703125 -76.90625 C 91.546875 -76.5625 91.367188 -76.234375 91.171875 -75.921875 C 89.972656 -73.773438 88.910156 -71.601562 87.984375 -69.40625 C 87.628906 -68.625 87.28125 -67.859375 86.9375 -67.109375 C 83.675781 -60.035156 80.398438 -52.957031 77.109375 -45.875 C 74.597656 -40.40625 72.066406 -34.925781 69.515625 -29.4375 C 68.773438 -27.8125 68.046875 -26.195312 67.328125 -24.59375 C 67.171875 -24.25 67.015625 -23.921875 66.859375 -23.609375 C 66.835938 -23.546875 66.8125 -23.46875 66.78125 -23.375 C 66.675781 -23.15625 66.59375 -22.9375 66.53125 -22.71875 C 66.46875 -22.5 66.488281 -22.28125 66.59375 -22.0625 C 66.800781 -21.90625 67.046875 -21.820312 67.328125 -21.8125 C 67.609375 -21.800781 67.867188 -21.796875 68.109375 -21.796875 C 68.304688 -21.816406 68.484375 -21.828125 68.640625 -21.828125 C 69.816406 -21.804688 70.992188 -21.804688 72.171875 -21.828125 C 73.785156 -21.828125 75.40625 -21.816406 77.03125 -21.796875 C 85.84375 -21.640625 94.660156 -21.445312 103.484375 -21.21875 C 106.378906 -21.164062 109.25 -21.046875 112.09375 -20.859375 C 112.351562 -20.828125 112.625 -20.8125 112.90625 -20.8125 C 113.0625 -20.8125 113.234375 -20.8125 113.421875 -20.8125 C 113.785156 -20.8125 114.140625 -20.78125 114.484375 -20.71875 C 114.828125 -20.65625 115.15625 -20.535156 115.46875 -20.359375 C 115.519531 -20.316406 115.5625 -20.25 115.59375 -20.15625 C 115.625 -20.0625 115.625 -19.984375 115.59375 -19.921875 C 115.59375 -19.828125 115.550781 -19.738281 115.46875 -19.65625 C 115.394531 -19.582031 115.332031 -19.53125 115.28125 -19.5 C 115.019531 -19.40625 114.75 -19.359375 114.46875 -19.359375 Z M 51.34375 -19.125 C 51.4375 -19.320312 51.441406 -19.5 51.359375 -19.65625 C 51.285156 -19.8125 51.160156 -19.890625 50.984375 -19.890625 C 50.703125 -19.910156 50.40625 -19.910156 50.09375 -19.890625 C 49.9375 -19.890625 49.78125 -19.890625 49.625 -19.890625 C 38.957031 -19.765625 28.289062 -19.03125 17.625 -17.6875 C 13.539062 -17.1875 9.476562 -16.535156 5.4375 -15.734375 C 1.40625 -14.929688 -2.59375 -13.921875 -6.5625 -12.703125 C -8.6875 -12.054688 -10.773438 -11.3125 -12.828125 -10.46875 C -14.890625 -9.632812 -16.90625 -8.632812 -18.875 -7.46875 C -20.914062 -6.332031 -22.78125 -4.9375 -24.46875 -3.28125 C -26.425781 -1.257812 -27.523438 0.890625 -27.765625 3.171875 C -28.015625 5.453125 -27.40625 7.648438 -25.9375 9.765625 C -24.851562 11.242188 -23.554688 12.515625 -22.046875 13.578125 C -16.535156 17.484375 -9.976562 19.472656 -2.375 19.546875 C -0.425781 19.546875 1.8125 19.289062 4.34375 18.78125 C 6.851562 18.257812 9.28125 17.492188 11.625 16.484375 C 13.96875 15.472656 16.242188 14.285156 18.453125 12.921875 C 23.878906 9.578125 28.910156 5.679688 33.546875 1.234375 C 36.753906 -1.773438 39.773438 -4.941406 42.609375 -8.265625 C 45.453125 -11.597656 48.207031 -14.984375 50.875 -18.421875 C 51.03125 -18.679688 51.1875 -18.914062 51.34375 -19.125 Z M 64.296875 -23.515625 C 66.347656 -28.171875 68.457031 -32.8125 70.625 -37.4375 C 70.726562 -37.695312 71.054688 -38.429688 71.609375 -39.640625 C 72.171875 -40.847656 72.816406 -42.25 73.546875 -43.84375 C 74.273438 -45.445312 74.941406 -46.960938 75.546875 -48.390625 C 76.148438 -49.816406 76.578125 -50.882812 76.828125 -51.59375 C 77.078125 -52.3125 77.003906 -52.378906 76.609375 -51.796875 C 76.503906 -51.671875 76.425781 -51.546875 76.375 -51.421875 C 76.03125 -50.929688 75.703125 -50.4375 75.390625 -49.9375 C 72.804688 -45.925781 70.207031 -41.921875 67.59375 -37.921875 C 64.988281 -33.929688 62.289062 -29.992188 59.5 -26.109375 C 59.226562 -25.742188 58.953125 -25.359375 58.671875 -24.953125 C 58.128906 -24.210938 57.597656 -23.46875 57.078125 -22.71875 C 56.867188 -22.414062 56.804688 -22.160156 56.890625 -21.953125 C 56.984375 -21.742188 57.203125 -21.640625 57.546875 -21.640625 C 58.109375 -21.640625 58.664062 -21.65625 59.21875 -21.6875 C 60.09375 -21.757812 60.960938 -21.796875 61.828125 -21.796875 C 62.484375 -21.765625 62.992188 -21.90625 63.359375 -22.21875 C 63.734375 -22.53125 64.046875 -22.960938 64.296875 -23.515625 Z M 64.296875 -23.515625 "/></g></g></g><g fill="#737373" fill-opacity="1"><g transform="translate(558.311165, 268.608405)"><g><path d="M 16.78125 -10.5625 C 17 -10.28125 16.710938 -9.765625 15.921875 -9.015625 C 15.128906 -8.273438 14.289062 -7.648438 13.40625 -7.140625 C 12.519531 -6.628906 11.488281 -6.117188 10.3125 -5.609375 C 9.539062 -5.273438 8.710938 -5.160156 7.828125 -5.265625 C 6.953125 -5.378906 6.515625 -5.910156 6.515625 -6.859375 C 6.515625 -7.804688 6.738281 -8.742188 7.1875 -9.671875 C 7.625 -10.640625 7.71875 -11.132812 7.46875 -11.15625 C 7.21875 -11.1875 6.707031 -10.957031 5.9375 -10.46875 C 3.914062 -9.132812 2.035156 -7.613281 0.296875 -5.90625 C -0.171875 -5.34375 -0.765625 -5.035156 -1.484375 -4.984375 C -1.847656 -4.984375 -2.128906 -5.097656 -2.328125 -5.328125 C -2.535156 -5.554688 -2.566406 -5.804688 -2.421875 -6.078125 C -1.171875 -8.378906 0.0859375 -10.648438 1.359375 -12.890625 C 1.640625 -13.359375 2.0625 -13.648438 2.625 -13.765625 C 2.863281 -13.804688 3.082031 -13.734375 3.28125 -13.546875 C 3.488281 -13.359375 3.59375 -13.140625 3.59375 -12.890625 C 3.570312 -12.671875 3.484375 -12.40625 3.328125 -12.09375 C 3.253906 -11.90625 3.1875 -11.726562 3.125 -11.5625 C 3.0625 -11.394531 3.039062 -11.253906 3.0625 -11.140625 C 3.082031 -11.023438 3.171875 -10.988281 3.328125 -11.03125 C 3.535156 -11.144531 3.742188 -11.265625 3.953125 -11.390625 C 4.492188 -11.703125 5.007812 -12 5.5 -12.28125 C 5.9375 -12.539062 6.394531 -12.769531 6.875 -12.96875 C 7.363281 -13.164062 7.867188 -13.296875 8.390625 -13.359375 C 9.234375 -13.421875 9.832031 -13.234375 10.1875 -12.796875 C 10.539062 -12.359375 10.582031 -11.75 10.3125 -10.96875 C 10.03125 -10.257812 9.734375 -9.5625 9.421875 -8.875 C 9.046875 -8.226562 8.984375 -7.734375 9.234375 -7.390625 C 9.484375 -7.054688 10.660156 -7.445312 12.765625 -8.5625 L 14.359375 -9.484375 C 15.859375 -10.441406 16.664062 -10.800781 16.78125 -10.5625 Z M 16.78125 -10.5625 "/></g></g></g><g fill="#737373" fill-opacity="1"><g transform="translate(573.834113, 268.608405)"><g><path d="M 18.796875 -11.140625 C 19.097656 -11.066406 19.253906 -10.957031 19.265625 -10.8125 C 19.285156 -10.675781 19.296875 -10.609375 19.296875 -10.609375 C 18.953125 -10.015625 18.5625 -9.472656 18.125 -8.984375 C 17.125 -7.867188 15.960938 -6.976562 14.640625 -6.3125 C 13.984375 -5.945312 13.25 -5.75 12.4375 -5.71875 C 10.539062 -5.6875 9.671875 -6.601562 9.828125 -8.46875 C 9.898438 -8.863281 9.992188 -9.253906 10.109375 -9.640625 C 10.171875 -9.816406 10.21875 -10 10.25 -10.1875 C 10.4375 -10.863281 10.488281 -11.238281 10.40625 -11.3125 C 10.332031 -11.394531 10.113281 -11.203125 9.75 -10.734375 C 9.644531 -10.648438 9.550781 -10.5625 9.46875 -10.46875 C 8.90625 -9.789062 8.328125 -9.125 7.734375 -8.46875 C 6.640625 -7.226562 5.394531 -6.1875 4 -5.34375 C 3.164062 -4.84375 2.285156 -4.578125 1.359375 -4.546875 C -0.171875 -4.484375 -1.023438 -5.1875 -1.203125 -6.65625 C -1.273438 -7.25 -1.25 -7.832031 -1.125 -8.40625 C -0.5 -10.8125 0.742188 -12.640625 2.609375 -13.890625 C 4.472656 -15.148438 6.601562 -15.597656 9 -15.234375 C 9.675781 -15.035156 10.171875 -15.21875 10.484375 -15.78125 C 10.609375 -15.988281 10.734375 -16.207031 10.859375 -16.4375 C 11.515625 -17.550781 12.148438 -18.664062 12.765625 -19.78125 C 13.941406 -21.925781 15.125 -24.085938 16.3125 -26.265625 C 17.269531 -27.972656 18.226562 -29.695312 19.1875 -31.4375 C 19.46875 -31.96875 19.78125 -32.476562 20.125 -32.96875 C 20.28125 -33.21875 20.472656 -33.363281 20.703125 -33.40625 C 20.929688 -33.457031 21.175781 -33.484375 21.4375 -33.484375 C 21.488281 -33.484375 21.550781 -33.484375 21.625 -33.484375 C 21.90625 -33.484375 22.128906 -33.410156 22.296875 -33.265625 C 22.472656 -33.128906 22.507812 -32.941406 22.40625 -32.703125 C 22.21875 -32.109375 22 -31.539062 21.75 -31 C 20.445312 -28.40625 19.21875 -25.773438 18.0625 -23.109375 C 16.914062 -20.453125 15.785156 -17.773438 14.671875 -15.078125 C 14.304688 -14.148438 13.9375 -13.21875 13.5625 -12.28125 C 13.09375 -11.195312 12.703125 -10.082031 12.390625 -8.9375 C 12.304688 -8.6875 12.265625 -8.4375 12.265625 -8.1875 C 12.265625 -7.9375 12.382812 -7.722656 12.625 -7.546875 C 12.78125 -7.441406 12.941406 -7.421875 13.109375 -7.484375 C 13.273438 -7.546875 13.457031 -7.617188 13.65625 -7.703125 C 13.6875 -7.742188 13.726562 -7.78125 13.78125 -7.8125 C 15.125 -8.59375 16.351562 -9.523438 17.46875 -10.609375 C 17.65625 -10.796875 17.847656 -10.953125 18.046875 -11.078125 C 18.253906 -11.203125 18.503906 -11.222656 18.796875 -11.140625 Z M 8.34375 -12.515625 C 8.5 -12.765625 8.546875 -13.003906 8.484375 -13.234375 C 8.421875 -13.472656 8.257812 -13.648438 8 -13.765625 C 7.476562 -14.046875 6.921875 -14.082031 6.328125 -13.875 C 4.878906 -13.4375 3.660156 -12.601562 2.671875 -11.375 C 1.691406 -10.144531 1.160156 -8.789062 1.078125 -7.3125 C 1.109375 -7.238281 1.125 -7.1875 1.125 -7.15625 C 1.125 -7.03125 1.125 -6.90625 1.125 -6.78125 C 1.25 -6.101562 1.664062 -5.972656 2.375 -6.390625 C 3.09375 -6.804688 3.890625 -7.476562 4.765625 -8.40625 C 5.648438 -9.34375 6.441406 -10.226562 7.140625 -11.0625 C 7.847656 -11.90625 8.25 -12.390625 8.34375 -12.515625 Z M 8.34375 -12.515625 "/></g></g></g><g fill="#737373" fill-opacity="1"><g transform="translate(591.538306, 268.608405)"><g><path d="M 12.0625 -8.125 C 11.25 -7.320312 10.296875 -6.632812 9.203125 -6.0625 C 8.117188 -5.488281 7.207031 -5.113281 6.46875 -4.9375 C 5.738281 -4.769531 4.988281 -4.671875 4.21875 -4.640625 C 2.96875 -4.578125 1.820312 -4.742188 0.78125 -5.140625 C -0.925781 -5.835938 -1.519531 -7.160156 -1 -9.109375 C -0.5 -10.785156 0.503906 -12.097656 2.015625 -13.046875 C 3.523438 -13.992188 5.082031 -14.453125 6.6875 -14.421875 C 6.6875 -14.421875 6.703125 -14.421875 6.734375 -14.421875 C 7.140625 -14.453125 7.53125 -14.425781 7.90625 -14.34375 C 8.519531 -14.113281 8.910156 -13.742188 9.078125 -13.234375 C 9.253906 -12.722656 9.144531 -12.160156 8.75 -11.546875 C 7.84375 -10.171875 6.613281 -9.40625 5.0625 -9.25 C 4.03125 -9.15625 3.035156 -9.207031 2.078125 -9.40625 C 1.890625 -9.4375 1.722656 -9.382812 1.578125 -9.25 C 1.441406 -9.125 1.359375 -8.972656 1.328125 -8.796875 C 1.046875 -7.578125 1.421875 -6.796875 2.453125 -6.453125 C 3.722656 -6.015625 5.046875 -6.015625 6.421875 -6.453125 C 8.003906 -6.953125 9.503906 -7.882812 10.921875 -9.25 C 12.347656 -10.625 13.171875 -11.265625 13.390625 -11.171875 C 13.609375 -11.078125 13.675781 -10.8125 13.59375 -10.375 C 13.394531 -9.6875 12.882812 -8.9375 12.0625 -8.125 Z M 3.046875 -11.546875 C 2.960938 -11.441406 2.898438 -11.328125 2.859375 -11.203125 C 2.828125 -11.085938 2.875 -10.984375 3 -10.890625 C 3.5 -10.609375 4.035156 -10.503906 4.609375 -10.578125 C 5.191406 -10.660156 5.679688 -10.878906 6.078125 -11.234375 C 6.484375 -11.597656 6.660156 -12.039062 6.609375 -12.5625 C 6.566406 -12.738281 6.46875 -12.851562 6.3125 -12.90625 C 6.15625 -12.957031 6 -12.96875 5.84375 -12.9375 C 4.800781 -12.757812 3.867188 -12.296875 3.046875 -11.546875 Z M 3.046875 -11.546875 "/></g></g></g><g fill="#737373" fill-opacity="1"><g transform="translate(603.8635, 268.608405)"><g><path d="M 10.15625 -13 C 10.03125 -12.03125 9.570312 -11.394531 8.78125 -11.09375 C 8 -10.800781 7.742188 -11.191406 8.015625 -12.265625 C 8.285156 -13.335938 7.800781 -13.609375 6.5625 -13.078125 C 5.320312 -12.546875 4.300781 -11.878906 3.5 -11.078125 C 2.25 -9.804688 1.144531 -8.4375 0.1875 -6.96875 C 0.09375 -6.84375 0.015625 -6.738281 -0.046875 -6.65625 C -0.328125 -6.238281 -0.609375 -5.847656 -0.890625 -5.484375 C -1.078125 -5.234375 -1.289062 -5.070312 -1.53125 -5 C -1.78125 -4.9375 -2.03125 -4.929688 -2.28125 -4.984375 C -2.519531 -5.003906 -2.703125 -5.09375 -2.828125 -5.25 C -2.960938 -5.40625 -2.976562 -5.585938 -2.875 -5.796875 C -2.71875 -6.179688 -2.535156 -6.570312 -2.328125 -6.96875 C -1.054688 -9.320312 0.234375 -11.6875 1.546875 -14.0625 C 1.578125 -14.09375 1.59375 -14.117188 1.59375 -14.140625 C 1.769531 -14.515625 1.988281 -14.859375 2.25 -15.171875 C 2.53125 -15.472656 2.851562 -15.59375 3.21875 -15.53125 C 3.582031 -15.476562 3.828125 -15.265625 3.953125 -14.890625 C 4.109375 -14.390625 4.242188 -14.109375 4.359375 -14.046875 C 4.472656 -13.984375 4.726562 -14.03125 5.125 -14.1875 C 5.96875 -14.5 6.789062 -14.71875 7.59375 -14.84375 C 8.40625 -14.96875 9.066406 -14.9375 9.578125 -14.75 C 10.097656 -14.5625 10.289062 -13.976562 10.15625 -13 Z M 10.15625 -13 "/></g></g></g><g fill="#737373" fill-opacity="1"><g transform="translate(614.452123, 268.608405)"><g><path d="M 10.25 -10.734375 C 8.019531 -9.898438 6.410156 -9.222656 5.421875 -8.703125 C 4.703125 -8.347656 4.289062 -8.050781 4.1875 -7.8125 C 4.082031 -7.582031 4.160156 -7.160156 4.421875 -6.546875 C 4.421875 -6.515625 4.441406 -6.472656 4.484375 -6.421875 C 4.796875 -5.671875 4.984375 -4.894531 5.046875 -4.09375 C 5.140625 -2.46875 3.753906 -1.328125 0.890625 -0.671875 C -1.960938 -0.0234375 -3.875 -0.00390625 -4.84375 -0.609375 C -5.8125 -1.222656 -6.109375 -1.992188 -5.734375 -2.921875 C -5.359375 -3.859375 -4.382812 -4.804688 -2.8125 -5.765625 C -1.25 -6.722656 -0.203125 -7.410156 0.328125 -7.828125 C 0.859375 -8.253906 1.019531 -8.726562 0.8125 -9.25 C 0.738281 -9.4375 0.660156 -9.625 0.578125 -9.8125 C 0.390625 -10.25 0.195312 -10.695312 0 -11.15625 C -0.363281 -12.007812 -0.519531 -12.84375 -0.46875 -13.65625 C -0.425781 -14.476562 -0.128906 -15.164062 0.421875 -15.71875 C 0.984375 -16.28125 1.851562 -16.582031 3.03125 -16.625 C 3.695312 -16.65625 4.289062 -16.566406 4.8125 -16.359375 C 5.332031 -16.148438 5.75 -15.773438 6.0625 -15.234375 C 6.3125 -14.847656 6.234375 -14.5 5.828125 -14.1875 C 5.554688 -13.976562 5.265625 -13.953125 4.953125 -14.109375 C 4.753906 -14.191406 4.566406 -14.3125 4.390625 -14.46875 C 4.390625 -14.507812 4.390625 -14.53125 4.390625 -14.53125 C 4.296875 -14.582031 4.21875 -14.640625 4.15625 -14.703125 C 4.070312 -14.828125 3.976562 -14.925781 3.875 -15 C 3.507812 -15.257812 3.140625 -15.335938 2.765625 -15.234375 C 2.390625 -15.128906 2.109375 -14.84375 1.921875 -14.375 C 1.796875 -14.007812 1.734375 -13.640625 1.734375 -13.265625 C 1.765625 -12.796875 1.867188 -12.34375 2.046875 -11.90625 C 2.179688 -11.632812 2.296875 -11.382812 2.390625 -11.15625 C 2.628906 -10.539062 2.828125 -10.113281 2.984375 -9.875 C 3.140625 -9.644531 3.328125 -9.546875 3.546875 -9.578125 C 3.765625 -9.617188 5.765625 -10.335938 9.546875 -11.734375 C 10.367188 -12.003906 10.601562 -11.671875 10.25 -10.734375 Z M 1.078125 -2.640625 C 2.066406 -2.984375 2.484375 -3.648438 2.328125 -4.640625 C 2.328125 -4.710938 2.3125 -4.789062 2.28125 -4.875 C 2.226562 -5.40625 2.113281 -5.816406 1.9375 -6.109375 C 1.769531 -6.398438 1.394531 -6.390625 0.8125 -6.078125 C -0.65625 -5.242188 -2.015625 -4.269531 -3.265625 -3.15625 C -3.347656 -3.050781 -3.425781 -2.957031 -3.5 -2.875 C -3.5 -2.875 -3.507812 -2.851562 -3.53125 -2.8125 C -3.613281 -2.695312 -3.628906 -2.566406 -3.578125 -2.421875 C -3.523438 -2.285156 -3.398438 -2.21875 -3.203125 -2.21875 C -1.742188 -2 -0.316406 -2.140625 1.078125 -2.640625 Z M 1.078125 -2.640625 "/></g></g></g><g fill="#737373" fill-opacity="1"><g transform="translate(623.833668, 268.608405)"><g><path d="M 12.0625 -8.125 C 11.25 -7.320312 10.296875 -6.632812 9.203125 -6.0625 C 8.117188 -5.488281 7.207031 -5.113281 6.46875 -4.9375 C 5.738281 -4.769531 4.988281 -4.671875 4.21875 -4.640625 C 2.96875 -4.578125 1.820312 -4.742188 0.78125 -5.140625 C -0.925781 -5.835938 -1.519531 -7.160156 -1 -9.109375 C -0.5 -10.785156 0.503906 -12.097656 2.015625 -13.046875 C 3.523438 -13.992188 5.082031 -14.453125 6.6875 -14.421875 C 6.6875 -14.421875 6.703125 -14.421875 6.734375 -14.421875 C 7.140625 -14.453125 7.53125 -14.425781 7.90625 -14.34375 C 8.519531 -14.113281 8.910156 -13.742188 9.078125 -13.234375 C 9.253906 -12.722656 9.144531 -12.160156 8.75 -11.546875 C 7.84375 -10.171875 6.613281 -9.40625 5.0625 -9.25 C 4.03125 -9.15625 3.035156 -9.207031 2.078125 -9.40625 C 1.890625 -9.4375 1.722656 -9.382812 1.578125 -9.25 C 1.441406 -9.125 1.359375 -8.972656 1.328125 -8.796875 C 1.046875 -7.578125 1.421875 -6.796875 2.453125 -6.453125 C 3.722656 -6.015625 5.046875 -6.015625 6.421875 -6.453125 C 8.003906 -6.953125 9.503906 -7.882812 10.921875 -9.25 C 12.347656 -10.625 13.171875 -11.265625 13.390625 -11.171875 C 13.609375 -11.078125 13.675781 -10.8125 13.59375 -10.375 C 13.394531 -9.6875 12.882812 -8.9375 12.0625 -8.125 Z M 3.046875 -11.546875 C 2.960938 -11.441406 2.898438 -11.328125 2.859375 -11.203125 C 2.828125 -11.085938 2.875 -10.984375 3 -10.890625 C 3.5 -10.609375 4.035156 -10.503906 4.609375 -10.578125 C 5.191406 -10.660156 5.679688 -10.878906 6.078125 -11.234375 C 6.484375 -11.597656 6.660156 -12.039062 6.609375 -12.5625 C 6.566406 -12.738281 6.46875 -12.851562 6.3125 -12.90625 C 6.15625 -12.957031 6 -12.96875 5.84375 -12.9375 C 4.800781 -12.757812 3.867188 -12.296875 3.046875 -11.546875 Z M 3.046875 -11.546875 "/></g></g></g><g fill="#737373" fill-opacity="1"><g transform="translate(636.158863, 268.608405)"><g><path d="M 16.78125 -10.5625 C 17 -10.28125 16.710938 -9.765625 15.921875 -9.015625 C 15.128906 -8.273438 14.289062 -7.648438 13.40625 -7.140625 C 12.519531 -6.628906 11.488281 -6.117188 10.3125 -5.609375 C 9.539062 -5.273438 8.710938 -5.160156 7.828125 -5.265625 C 6.953125 -5.378906 6.515625 -5.910156 6.515625 -6.859375 C 6.515625 -7.804688 6.738281 -8.742188 7.1875 -9.671875 C 7.625 -10.640625 7.71875 -11.132812 7.46875 -11.15625 C 7.21875 -11.1875 6.707031 -10.957031 5.9375 -10.46875 C 3.914062 -9.132812 2.035156 -7.613281 0.296875 -5.90625 C -0.171875 -5.34375 -0.765625 -5.035156 -1.484375 -4.984375 C -1.847656 -4.984375 -2.128906 -5.097656 -2.328125 -5.328125 C -2.535156 -5.554688 -2.566406 -5.804688 -2.421875 -6.078125 C -1.171875 -8.378906 0.0859375 -10.648438 1.359375 -12.890625 C 1.640625 -13.359375 2.0625 -13.648438 2.625 -13.765625 C 2.863281 -13.804688 3.082031 -13.734375 3.28125 -13.546875 C 3.488281 -13.359375 3.59375 -13.140625 3.59375 -12.890625 C 3.570312 -12.671875 3.484375 -12.40625 3.328125 -12.09375 C 3.253906 -11.90625 3.1875 -11.726562 3.125 -11.5625 C 3.0625 -11.394531 3.039062 -11.253906 3.0625 -11.140625 C 3.082031 -11.023438 3.171875 -10.988281 3.328125 -11.03125 C 3.535156 -11.144531 3.742188 -11.265625 3.953125 -11.390625 C 4.492188 -11.703125 5.007812 -12 5.5 -12.28125 C 5.9375 -12.539062 6.394531 -12.769531 6.875 -12.96875 C 7.363281 -13.164062 7.867188 -13.296875 8.390625 -13.359375 C 9.234375 -13.421875 9.832031 -13.234375 10.1875 -12.796875 C 10.539062 -12.359375 10.582031 -11.75 10.3125 -10.96875 C 10.03125 -10.257812 9.734375 -9.5625 9.421875 -8.875 C 9.046875 -8.226562 8.984375 -7.734375 9.234375 -7.390625 C 9.484375 -7.054688 10.660156 -7.445312 12.765625 -8.5625 L 14.359375 -9.484375 C 15.859375 -10.441406 16.664062 -10.800781 16.78125 -10.5625 Z M 16.78125 -10.5625 "/></g></g></g></svg>