<svg xmlns="http://www.w3.org/2000/svg" xmlns:xlink="http://www.w3.org/1999/xlink" width="764" zoomAndPan="magnify" viewBox="0 0 573 141.000003" height="188" preserveAspectRatio="xMidYMid meet" version="1.0"><defs><g/></defs><g fill="#737373" fill-opacity="1"><g transform="translate(46.720691, 93.250691)"><g><path d="M 90.34375 -49.671875 C 90.25 -49.421875 90.15625 -49.171875 90.0625 -48.921875 C 89.09375 -46.429688 88.054688 -43.976562 86.953125 -41.5625 C 81.210938 -29.632812 75.050781 -18.097656 68.46875 -6.953125 C 66.320312 -3.359375 64.128906 0.171875 61.890625 3.640625 C 59.660156 7.109375 57.410156 10.566406 55.140625 14.015625 C 54.609375 14.828125 54.066406 15.640625 53.515625 16.453125 C 53.492188 16.515625 53.46875 16.5625 53.4375 16.59375 C 53.3125 16.84375 53.164062 17.046875 53 17.203125 C 52.832031 17.367188 52.613281 17.453125 52.34375 17.453125 C 52.21875 17.453125 52.085938 17.421875 51.953125 17.359375 C 51.816406 17.296875 51.707031 17.21875 51.625 17.125 C 51.550781 17.039062 51.5 16.90625 51.46875 16.71875 C 51.445312 16.539062 51.460938 16.394531 51.515625 16.28125 C 51.890625 15.488281 52.300781 14.734375 52.75 14.015625 C 53.769531 12.359375 54.796875 10.695312 55.828125 9.03125 C 57.753906 5.945312 59.65625 2.851562 61.53125 -0.25 C 65.675781 -7.164062 69.632812 -14.222656 73.40625 -21.421875 C 77.175781 -28.628906 80.859375 -35.910156 84.453125 -43.265625 C 85.898438 -46.109375 87.085938 -49.148438 88.015625 -52.390625 C 88.210938 -52.953125 88.359375 -53.535156 88.453125 -54.140625 C 88.554688 -54.742188 88.609375 -55.367188 88.609375 -56.015625 C 88.515625 -57.398438 87.925781 -58.003906 86.84375 -57.828125 C 85.882812 -57.628906 84.976562 -57.328125 84.125 -56.921875 C 82.101562 -55.941406 80.113281 -54.863281 78.15625 -53.6875 C 67.613281 -47.289062 58.015625 -39.351562 49.359375 -29.875 C 49.234375 -29.71875 49.097656 -29.566406 48.953125 -29.421875 C 45.960938 -26.160156 42.992188 -22.875 40.046875 -19.5625 C 37.097656 -16.257812 34.238281 -12.859375 31.46875 -9.359375 C 30.894531 -8.640625 30.289062 -7.960938 29.65625 -7.328125 C 28.988281 -6.628906 28.1875 -6.351562 27.25 -6.5 C 26.851562 -6.5625 26.523438 -6.757812 26.265625 -7.09375 C 26.015625 -7.425781 25.921875 -7.820312 25.984375 -8.28125 C 26.171875 -9.507812 26.441406 -10.703125 26.796875 -11.859375 C 27.910156 -15.503906 29.09375 -19.101562 30.34375 -22.65625 C 30.519531 -23.207031 30.679688 -23.738281 30.828125 -24.25 C 31.160156 -25.582031 31.628906 -26.8125 32.234375 -27.9375 C 32.234375 -27.957031 32.21875 -27.96875 32.1875 -27.96875 C 32.039062 -28.050781 31.890625 -28.113281 31.734375 -28.15625 C 31.585938 -28.207031 31.4375 -28.160156 31.28125 -28.015625 C 30.738281 -27.410156 30.210938 -26.78125 29.703125 -26.125 C 25.523438 -20.46875 21.390625 -14.765625 17.296875 -9.015625 C 13.210938 -3.265625 9.222656 2.578125 5.328125 8.515625 C 5.003906 9.097656 4.640625 9.570312 4.234375 9.9375 C 3.828125 10.300781 3.285156 10.421875 2.609375 10.296875 C 2.304688 10.210938 2.070312 10.023438 1.90625 9.734375 C 1.75 9.441406 1.71875 9.160156 1.8125 8.890625 C 2.164062 8.078125 2.554688 7.3125 2.984375 6.59375 C 4.191406 4.5 5.382812 2.410156 6.5625 0.328125 C 8.9375 -3.796875 11.289062 -7.945312 13.625 -12.125 C 17.25 -18.519531 20.484375 -25.25 23.328125 -32.3125 C 24.429688 -35.03125 25.332031 -37.882812 26.03125 -40.875 C 26.414062 -42.46875 26.582031 -44.128906 26.53125 -45.859375 C 26.351562 -48.628906 25.429688 -50.609375 23.765625 -51.796875 C 22.109375 -52.992188 19.925781 -53.5625 17.21875 -53.5 C 14.519531 -53.445312 11.523438 -52.894531 8.234375 -51.84375 C 4.941406 -50.800781 1.566406 -49.421875 -1.890625 -47.703125 C -5.347656 -45.992188 -8.679688 -44.101562 -11.890625 -42.03125 C -15.109375 -39.957031 -17.96875 -37.859375 -20.46875 -35.734375 C -22.976562 -33.609375 -24.929688 -31.613281 -26.328125 -29.75 C -27.796875 -27.6875 -29.046875 -25.421875 -30.078125 -22.953125 C -30.597656 -21.773438 -30.898438 -20.492188 -30.984375 -19.109375 C -31.003906 -18.828125 -31.140625 -18.617188 -31.390625 -18.484375 C -31.640625 -18.347656 -31.914062 -18.304688 -32.21875 -18.359375 C -32.695312 -18.515625 -33 -18.894531 -33.125 -19.5 C -33.207031 -20.289062 -33.144531 -21.015625 -32.9375 -21.671875 C -32.476562 -23.335938 -31.875 -24.910156 -31.125 -26.390625 C -29.738281 -28.984375 -27.628906 -31.628906 -24.796875 -34.328125 C -21.972656 -37.035156 -18.679688 -39.625 -14.921875 -42.09375 C -11.160156 -44.570312 -7.234375 -46.78125 -3.140625 -48.71875 C 0.941406 -50.664062 4.9375 -52.175781 8.84375 -53.25 C 12.757812 -54.332031 16.285156 -54.816406 19.421875 -54.703125 C 22.554688 -54.597656 25.03125 -53.738281 26.84375 -52.125 C 28.65625 -50.507812 29.53125 -47.96875 29.46875 -44.5 C 29.375 -42.257812 29.023438 -40.132812 28.421875 -38.125 C 27.546875 -35.15625 26.535156 -32.285156 25.390625 -29.515625 C 24.242188 -26.753906 23.023438 -24.050781 21.734375 -21.40625 C 21.335938 -20.582031 21.25 -20.179688 21.46875 -20.203125 C 21.695312 -20.222656 22.039062 -20.535156 22.5 -21.140625 C 24.132812 -23.304688 25.765625 -25.445312 27.390625 -27.5625 C 28.503906 -28.976562 29.640625 -30.363281 30.796875 -31.71875 C 30.941406 -31.914062 31.09375 -32.101562 31.25 -32.28125 C 31.90625 -33.082031 32.703125 -33.625 33.640625 -33.90625 C 34.335938 -34.050781 34.925781 -33.890625 35.40625 -33.421875 C 35.882812 -32.960938 36.050781 -32.265625 35.90625 -31.328125 C 35.875 -31.234375 35.84375 -31.140625 35.8125 -31.046875 C 35.570312 -29.835938 35.285156 -28.660156 34.953125 -27.515625 C 34.078125 -24.734375 33.171875 -21.96875 32.234375 -19.21875 C 31.785156 -17.8125 31.332031 -16.378906 30.875 -14.921875 C 30.78125 -14.710938 30.644531 -14.335938 30.46875 -13.796875 C 30.289062 -13.316406 30.117188 -12.84375 29.953125 -12.375 C 29.785156 -11.90625 29.65625 -11.546875 29.5625 -11.296875 C 29.6875 -11.390625 30.800781 -12.644531 32.90625 -15.0625 C 35.78125 -18.351562 39.175781 -22.207031 43.09375 -26.625 C 47.019531 -31.050781 50.101562 -34.429688 52.34375 -36.765625 C 56.476562 -40.921875 60.832031 -44.703125 65.40625 -48.109375 C 69.976562 -51.523438 74.722656 -54.613281 79.640625 -57.375 C 80.847656 -58 82.085938 -58.566406 83.359375 -59.078125 C 83.640625 -59.171875 83.910156 -59.28125 84.171875 -59.40625 C 85.378906 -59.882812 86.660156 -60.0625 88.015625 -59.9375 C 90.617188 -59.695312 91.8125 -58.050781 91.59375 -55 C 91.445312 -53.101562 91.03125 -51.328125 90.34375 -49.671875 Z M 32.09375 -28.09375 C 32.15625 -28.039062 32.203125 -28 32.234375 -27.96875 C 32.234375 -27.96875 32.234375 -27.957031 32.234375 -27.9375 C 32.265625 -27.9375 32.28125 -27.945312 32.28125 -27.96875 C 32.21875 -28 32.15625 -28.039062 32.09375 -28.09375 Z M 32.09375 -28.09375 "/></g></g></g><g fill="#737373" fill-opacity="1"><g transform="translate(124.303331, 93.250691)"><g><path d="M 14.9375 -10.484375 C 15.257812 -10.296875 15.28125 -9.847656 15 -9.140625 C 14.601562 -8.617188 14.175781 -8.128906 13.71875 -7.671875 C 13.269531 -7.222656 12.78125 -6.820312 12.25 -6.46875 C 12.207031 -6.46875 12.1875 -6.453125 12.1875 -6.421875 C 11.832031 -6.171875 11.453125 -5.957031 11.046875 -5.78125 C 7.773438 -4.601562 6.101562 -5.296875 6.03125 -7.859375 C 4.695312 -6.710938 3.804688 -6.007812 3.359375 -5.75 C 2.273438 -5.101562 1.097656 -4.8125 -0.171875 -4.875 C -1.097656 -4.925781 -1.726562 -5.207031 -2.0625 -5.71875 C -2.40625 -6.238281 -2.375 -6.941406 -1.96875 -7.828125 C -1.375 -9.210938 -0.519531 -10.445312 0.59375 -11.53125 C 1.894531 -12.738281 3.34375 -13.703125 4.9375 -14.421875 C 5.789062 -14.847656 6.679688 -15.015625 7.609375 -14.921875 C 8.546875 -14.867188 9.109375 -14.34375 9.296875 -13.34375 C 9.378906 -13.039062 9.304688 -12.769531 9.078125 -12.53125 C 8.773438 -12.257812 8.425781 -12.195312 8.03125 -12.34375 C 8 -12.34375 7.957031 -12.347656 7.90625 -12.359375 C 7.863281 -12.378906 7.828125 -12.40625 7.796875 -12.4375 C 7.398438 -12.976562 7 -13.203125 6.59375 -13.109375 C 6.1875 -13.023438 5.757812 -12.847656 5.3125 -12.578125 C 3.195312 -11.335938 1.625 -9.613281 0.59375 -7.40625 C 0.539062 -7.3125 0.503906 -7.207031 0.484375 -7.09375 C 0.472656 -6.976562 0.507812 -6.882812 0.59375 -6.8125 C 0.84375 -6.726562 1.117188 -6.742188 1.421875 -6.859375 C 1.722656 -6.984375 2.023438 -7.15625 2.328125 -7.375 C 2.628906 -7.601562 2.882812 -7.796875 3.09375 -7.953125 C 3.113281 -7.984375 3.125 -8 3.125 -8 C 4.125 -8.84375 5.109375 -9.703125 6.078125 -10.578125 C 6.492188 -11.035156 7.019531 -11.289062 7.65625 -11.34375 C 8.5625 -11.34375 8.941406 -10.9375 8.796875 -10.125 C 8.710938 -9.820312 8.617188 -9.519531 8.515625 -9.21875 C 8.160156 -7.914062 8.144531 -7.148438 8.46875 -6.921875 C 8.800781 -6.703125 9.304688 -6.703125 9.984375 -6.921875 C 10.671875 -7.148438 11.351562 -7.582031 12.03125 -8.21875 C 12.707031 -8.863281 13.28125 -9.445312 13.75 -9.96875 C 14.21875 -10.5 14.613281 -10.671875 14.9375 -10.484375 Z M 14.9375 -10.484375 "/></g></g></g><g fill="#737373" fill-opacity="1"><g transform="translate(137.9508, 93.250691)"><g><path d="M 12.859375 -9.9375 C 11.023438 -7.769531 9.222656 -6.171875 7.453125 -5.140625 C 5.691406 -4.117188 3.804688 -3.78125 1.796875 -4.125 C -0.210938 -4.476562 -1.035156 -5.828125 -0.671875 -8.171875 C -0.429688 -9.347656 -0.0976562 -10.5 0.328125 -11.625 C 1.390625 -14.25 2.460938 -16.859375 3.546875 -19.453125 C 3.898438 -20.390625 4.273438 -21.328125 4.671875 -22.265625 C 4.765625 -22.472656 4.851562 -22.679688 4.9375 -22.890625 C 5.09375 -23.234375 5.242188 -23.582031 5.390625 -23.9375 C 5.609375 -24.539062 5.367188 -24.859375 4.671875 -24.890625 C 4.273438 -24.890625 3.882812 -24.890625 3.5 -24.890625 C 3.320312 -24.890625 3.125 -24.890625 2.90625 -24.890625 C 2.695312 -24.859375 2.484375 -24.828125 2.265625 -24.796875 C 1.910156 -24.773438 1.554688 -24.765625 1.203125 -24.765625 C 0.847656 -24.765625 0.519531 -24.851562 0.21875 -25.03125 C 0.144531 -25.0625 0.0820312 -25.113281 0.03125 -25.1875 C -0.0195312 -25.257812 -0.046875 -25.34375 -0.046875 -25.4375 C -0.015625 -25.5 0.03125 -25.566406 0.09375 -25.640625 C 0.15625 -25.710938 0.234375 -25.765625 0.328125 -25.796875 C 0.628906 -25.921875 0.945312 -26.007812 1.28125 -26.0625 C 2.125 -26.101562 2.96875 -26.132812 3.8125 -26.15625 C 4.132812 -26.15625 4.421875 -26.15625 4.671875 -26.15625 C 5.222656 -26.15625 5.628906 -26.175781 5.890625 -26.21875 C 6.160156 -26.257812 6.378906 -26.40625 6.546875 -26.65625 C 6.710938 -26.90625 6.90625 -27.28125 7.125 -27.78125 C 7.25 -28.0625 7.398438 -28.363281 7.578125 -28.6875 C 8.023438 -29.65625 8.476562 -30.640625 8.9375 -31.640625 C 9.144531 -32.085938 9.359375 -32.523438 9.578125 -32.953125 C 9.753906 -33.378906 10.035156 -33.707031 10.421875 -33.9375 C 10.785156 -34.113281 11.109375 -34.101562 11.390625 -33.90625 C 11.460938 -33.84375 11.523438 -33.75 11.578125 -33.625 C 11.628906 -33.507812 11.65625 -33.40625 11.65625 -33.3125 C 11.65625 -32.769531 11.515625 -32.238281 11.234375 -31.71875 C 11.179688 -31.613281 11.117188 -31.484375 11.046875 -31.328125 C 10.867188 -30.835938 10.679688 -30.335938 10.484375 -29.828125 C 10.078125 -28.890625 9.695312 -27.9375 9.34375 -26.96875 C 9.25 -26.789062 9.242188 -26.628906 9.328125 -26.484375 C 9.421875 -26.347656 9.554688 -26.28125 9.734375 -26.28125 C 10.710938 -26.257812 11.664062 -26.25 12.59375 -26.25 C 13.070312 -26.25 13.550781 -26.25 14.03125 -26.25 C 15.539062 -26.21875 16.144531 -26.003906 15.84375 -25.609375 C 15.644531 -25.367188 15.425781 -25.234375 15.1875 -25.203125 C 14.945312 -25.171875 14.703125 -25.175781 14.453125 -25.21875 C 14.296875 -25.21875 14.144531 -25.21875 14 -25.21875 C 12.457031 -25.125 10.929688 -25.0625 9.421875 -25.03125 C 8.722656 -25.03125 8.257812 -24.710938 8.03125 -24.078125 C 7.78125 -23.472656 7.539062 -22.867188 7.3125 -22.265625 C 6.96875 -21.472656 6.644531 -20.703125 6.34375 -19.953125 C 6.039062 -19.234375 5.738281 -18.507812 5.4375 -17.78125 C 4.65625 -15.945312 3.898438 -14.101562 3.171875 -12.25 C 2.710938 -11.039062 2.351562 -9.804688 2.09375 -8.546875 C 1.519531 -6.253906 2.40625 -5.375 4.75 -5.90625 C 7.0625 -6.457031 9.476562 -8.117188 12 -10.890625 C 13.09375 -11.585938 13.378906 -11.269531 12.859375 -9.9375 Z M 12.859375 -9.9375 "/></g></g></g><g fill="#737373" fill-opacity="1"><g transform="translate(149.642744, 93.250691)"><g><path d="M 16.71875 -9.59375 C 16.46875 -9.375 16.207031 -9.175781 15.9375 -9 C 15.050781 -8.445312 14.253906 -8.007812 13.546875 -7.6875 C 12.847656 -7.375 12.015625 -7.054688 11.046875 -6.734375 C 9.617188 -6.304688 8.703125 -6.398438 8.296875 -7.015625 C 7.898438 -7.640625 7.835938 -8.5 8.109375 -9.59375 C 8.492188 -11.15625 8.71875 -12.300781 8.78125 -13.03125 C 8.84375 -13.757812 8.601562 -14.007812 8.0625 -13.78125 C 7.519531 -13.550781 6.535156 -12.800781 5.109375 -11.53125 C 3.117188 -9.8125 1.414062 -7.847656 0 -5.640625 C -0.175781 -5.335938 -0.394531 -5.085938 -0.65625 -4.890625 C -0.914062 -4.703125 -1.238281 -4.609375 -1.625 -4.609375 C -2 -4.609375 -2.265625 -4.703125 -2.421875 -4.890625 C -2.585938 -5.085938 -2.597656 -5.351562 -2.453125 -5.6875 C -1.640625 -7.46875 -0.804688 -9.234375 0.046875 -10.984375 C 1.492188 -14.035156 2.925781 -17.070312 4.34375 -20.09375 C 5.394531 -22.351562 6.4375 -24.617188 7.46875 -26.890625 C 8.101562 -28.210938 8.722656 -29.539062 9.328125 -30.875 C 9.378906 -30.988281 9.441406 -31.101562 9.515625 -31.21875 C 9.566406 -31.375 9.628906 -31.523438 9.703125 -31.671875 C 9.773438 -31.828125 9.863281 -31.992188 9.96875 -32.171875 C 10.050781 -32.328125 10.203125 -32.453125 10.421875 -32.546875 C 10.648438 -32.640625 10.875 -32.695312 11.09375 -32.71875 C 11.320312 -32.75 11.5 -32.738281 11.625 -32.6875 C 11.800781 -32.5625 11.898438 -32.429688 11.921875 -32.296875 C 11.941406 -32.160156 11.921875 -32.015625 11.859375 -31.859375 C 11.828125 -31.835938 11.8125 -31.789062 11.8125 -31.71875 C 11.539062 -30.90625 11.253906 -30.125 10.953125 -29.375 C 9.210938 -25.175781 7.3125 -21.039062 5.25 -16.96875 C 5.09375 -16.6875 4.914062 -16.351562 4.71875 -15.96875 C 4.414062 -15.425781 4.132812 -14.890625 3.875 -14.359375 C 3.613281 -13.828125 3.523438 -13.472656 3.609375 -13.296875 C 3.703125 -13.117188 4.113281 -13.253906 4.84375 -13.703125 C 5.0625 -13.859375 5.257812 -14.007812 5.4375 -14.15625 C 6.007812 -14.539062 6.578125 -14.90625 7.140625 -15.25 C 7.640625 -15.582031 8.191406 -15.757812 8.796875 -15.78125 C 10.234375 -15.882812 11.039062 -15.234375 11.21875 -13.828125 C 11.289062 -13.265625 11.269531 -12.707031 11.15625 -12.15625 C 11.039062 -11.613281 10.910156 -11.078125 10.765625 -10.546875 C 10.734375 -10.390625 10.707031 -10.238281 10.6875 -10.09375 C 10.4375 -9.15625 10.5 -8.617188 10.875 -8.484375 C 11.25 -8.347656 11.773438 -8.421875 12.453125 -8.703125 C 13.140625 -8.992188 13.832031 -9.34375 14.53125 -9.75 C 15.007812 -10 15.429688 -10.210938 15.796875 -10.390625 C 16.160156 -10.566406 16.429688 -10.644531 16.609375 -10.625 C 16.941406 -10.570312 17.09375 -10.4375 17.0625 -10.21875 C 17.03125 -10.007812 16.914062 -9.800781 16.71875 -9.59375 Z M 16.71875 -9.59375 "/></g></g></g><g fill="#737373" fill-opacity="1"><g transform="translate(165.348653, 93.250691)"><g><path d="M 8.171875 -8.671875 C 7.441406 -7.804688 6.578125 -7.007812 5.578125 -6.28125 C 4.578125 -5.550781 3.441406 -5.054688 2.171875 -4.796875 C 0.910156 -4.546875 -0.0664062 -4.640625 -0.765625 -5.078125 C -1.460938 -5.523438 -1.597656 -6.5 -1.171875 -8 C -0.617188 -9.570312 0.132812 -11.0625 1.09375 -12.46875 C 1.3125 -12.769531 1.625 -12.984375 2.03125 -13.109375 C 2.332031 -13.179688 2.597656 -13.128906 2.828125 -12.953125 C 3.054688 -12.785156 3.144531 -12.570312 3.09375 -12.3125 C 2.882812 -11.8125 2.65625 -11.316406 2.40625 -10.828125 C 2.15625 -10.335938 1.992188 -10.015625 1.921875 -9.859375 C 1.429688 -8.984375 1.09375 -8.0625 0.90625 -7.09375 C 0.90625 -6.550781 1.640625 -6.519531 3.109375 -7 C 4.578125 -7.476562 6.003906 -8.359375 7.390625 -9.640625 C 8.773438 -10.921875 9.4375 -11.296875 9.375 -10.765625 C 9.3125 -10.242188 8.910156 -9.546875 8.171875 -8.671875 Z M 4.59375 -15.5625 C 4.519531 -15.507812 4.375 -15.441406 4.15625 -15.359375 C 3.945312 -15.285156 3.722656 -15.234375 3.484375 -15.203125 C 3.242188 -15.171875 3.054688 -15.207031 2.921875 -15.3125 C 2.785156 -15.425781 2.78125 -15.644531 2.90625 -15.96875 C 3.125 -16.550781 3.351562 -17.054688 3.59375 -17.484375 C 3.832031 -17.921875 4.144531 -18.398438 4.53125 -18.921875 C 4.78125 -19.148438 5.046875 -19.273438 5.328125 -19.296875 C 5.617188 -19.316406 5.859375 -19.238281 6.046875 -19.0625 C 6.242188 -18.894531 6.300781 -18.660156 6.21875 -18.359375 C 5.914062 -17.273438 5.375 -16.34375 4.59375 -15.5625 Z M 4.59375 -15.5625 "/></g></g></g><g fill="#737373" fill-opacity="1"><g transform="translate(173.376572, 93.250691)"><g><path d="M 14.9375 -10.484375 C 15.257812 -10.296875 15.28125 -9.847656 15 -9.140625 C 14.601562 -8.617188 14.175781 -8.128906 13.71875 -7.671875 C 13.269531 -7.222656 12.78125 -6.820312 12.25 -6.46875 C 12.207031 -6.46875 12.1875 -6.453125 12.1875 -6.421875 C 11.832031 -6.171875 11.453125 -5.957031 11.046875 -5.78125 C 7.773438 -4.601562 6.101562 -5.296875 6.03125 -7.859375 C 4.695312 -6.710938 3.804688 -6.007812 3.359375 -5.75 C 2.273438 -5.101562 1.097656 -4.8125 -0.171875 -4.875 C -1.097656 -4.925781 -1.726562 -5.207031 -2.0625 -5.71875 C -2.40625 -6.238281 -2.375 -6.941406 -1.96875 -7.828125 C -1.375 -9.210938 -0.519531 -10.445312 0.59375 -11.53125 C 1.894531 -12.738281 3.34375 -13.703125 4.9375 -14.421875 C 5.789062 -14.847656 6.679688 -15.015625 7.609375 -14.921875 C 8.546875 -14.867188 9.109375 -14.34375 9.296875 -13.34375 C 9.378906 -13.039062 9.304688 -12.769531 9.078125 -12.53125 C 8.773438 -12.257812 8.425781 -12.195312 8.03125 -12.34375 C 8 -12.34375 7.957031 -12.347656 7.90625 -12.359375 C 7.863281 -12.378906 7.828125 -12.40625 7.796875 -12.4375 C 7.398438 -12.976562 7 -13.203125 6.59375 -13.109375 C 6.1875 -13.023438 5.757812 -12.847656 5.3125 -12.578125 C 3.195312 -11.335938 1.625 -9.613281 0.59375 -7.40625 C 0.539062 -7.3125 0.503906 -7.207031 0.484375 -7.09375 C 0.472656 -6.976562 0.507812 -6.882812 0.59375 -6.8125 C 0.84375 -6.726562 1.117188 -6.742188 1.421875 -6.859375 C 1.722656 -6.984375 2.023438 -7.15625 2.328125 -7.375 C 2.628906 -7.601562 2.882812 -7.796875 3.09375 -7.953125 C 3.113281 -7.984375 3.125 -8 3.125 -8 C 4.125 -8.84375 5.109375 -9.703125 6.078125 -10.578125 C 6.492188 -11.035156 7.019531 -11.289062 7.65625 -11.34375 C 8.5625 -11.34375 8.941406 -10.9375 8.796875 -10.125 C 8.710938 -9.820312 8.617188 -9.519531 8.515625 -9.21875 C 8.160156 -7.914062 8.144531 -7.148438 8.46875 -6.921875 C 8.800781 -6.703125 9.304688 -6.703125 9.984375 -6.921875 C 10.671875 -7.148438 11.351562 -7.582031 12.03125 -8.21875 C 12.707031 -8.863281 13.28125 -9.445312 13.75 -9.96875 C 14.21875 -10.5 14.613281 -10.671875 14.9375 -10.484375 Z M 14.9375 -10.484375 "/></g></g></g><g fill="#737373" fill-opacity="1"><g transform="translate(187.024041, 93.250691)"><g><path d="M 9.96875 -10.4375 C 7.789062 -9.625 6.222656 -8.960938 5.265625 -8.453125 C 4.566406 -8.117188 4.164062 -7.835938 4.0625 -7.609375 C 3.957031 -7.378906 4.035156 -6.960938 4.296875 -6.359375 C 4.296875 -6.328125 4.316406 -6.285156 4.359375 -6.234375 C 4.660156 -5.503906 4.84375 -4.75 4.90625 -3.96875 C 5 -2.394531 3.65625 -1.289062 0.875 -0.65625 C -1.90625 -0.03125 -3.765625 -0.0078125 -4.703125 -0.59375 C -5.640625 -1.1875 -5.925781 -1.9375 -5.5625 -2.84375 C -5.195312 -3.75 -4.253906 -4.664062 -2.734375 -5.59375 C -1.210938 -6.53125 -0.195312 -7.203125 0.3125 -7.609375 C 0.832031 -8.023438 0.988281 -8.488281 0.78125 -9 C 0.707031 -9.175781 0.632812 -9.351562 0.5625 -9.53125 C 0.375 -9.957031 0.1875 -10.394531 0 -10.84375 C -0.351562 -11.664062 -0.503906 -12.472656 -0.453125 -13.265625 C -0.410156 -14.066406 -0.117188 -14.738281 0.421875 -15.28125 C 0.960938 -15.820312 1.800781 -16.113281 2.9375 -16.15625 C 3.582031 -16.1875 4.160156 -16.101562 4.671875 -15.90625 C 5.179688 -15.707031 5.585938 -15.335938 5.890625 -14.796875 C 6.128906 -14.429688 6.050781 -14.097656 5.65625 -13.796875 C 5.394531 -13.585938 5.113281 -13.554688 4.8125 -13.703125 C 4.625 -13.785156 4.441406 -13.90625 4.265625 -14.0625 C 4.265625 -14.101562 4.265625 -14.125 4.265625 -14.125 C 4.179688 -14.175781 4.101562 -14.226562 4.03125 -14.28125 C 3.945312 -14.40625 3.859375 -14.503906 3.765625 -14.578125 C 3.410156 -14.835938 3.050781 -14.914062 2.6875 -14.8125 C 2.320312 -14.707031 2.050781 -14.429688 1.875 -13.984375 C 1.75 -13.617188 1.6875 -13.253906 1.6875 -12.890625 C 1.71875 -12.429688 1.820312 -11.988281 2 -11.5625 C 2.125 -11.300781 2.234375 -11.0625 2.328125 -10.84375 C 2.554688 -10.238281 2.742188 -9.820312 2.890625 -9.59375 C 3.046875 -9.375 3.226562 -9.28125 3.4375 -9.3125 C 3.65625 -9.34375 5.601562 -10.039062 9.28125 -11.40625 C 10.082031 -11.664062 10.3125 -11.34375 9.96875 -10.4375 Z M 1.046875 -2.578125 C 2.003906 -2.898438 2.410156 -3.546875 2.265625 -4.515625 C 2.265625 -4.578125 2.25 -4.648438 2.21875 -4.734375 C 2.164062 -5.253906 2.054688 -5.65625 1.890625 -5.9375 C 1.722656 -6.21875 1.351562 -6.207031 0.78125 -5.90625 C -0.644531 -5.09375 -1.960938 -4.144531 -3.171875 -3.0625 C -3.253906 -2.96875 -3.328125 -2.878906 -3.390625 -2.796875 C -3.390625 -2.796875 -3.40625 -2.773438 -3.4375 -2.734375 C -3.519531 -2.628906 -3.53125 -2.503906 -3.46875 -2.359375 C -3.414062 -2.222656 -3.296875 -2.15625 -3.109375 -2.15625 C -1.691406 -1.9375 -0.304688 -2.078125 1.046875 -2.578125 Z M 1.046875 -2.578125 "/></g></g></g><g fill="#737373" fill-opacity="1"><g transform="translate(196.142939, 93.250691)"><g/></g></g><g fill="#737373" fill-opacity="1"><g transform="translate(211.704752, 93.250691)"><g><path d="M 105.25 -57.859375 C 105.757812 -57.554688 106.082031 -57.15625 106.21875 -56.65625 C 106.351562 -56.15625 106.269531 -55.648438 105.96875 -55.140625 C 105.507812 -54.410156 104.953125 -53.742188 104.296875 -53.140625 C 102.960938 -51.910156 101.492188 -50.796875 99.890625 -49.796875 C 91.804688 -44.515625 83.101562 -40.5 73.78125 -37.75 C 73.351562 -37.625 72.925781 -37.488281 72.5 -37.34375 C 71.863281 -37.132812 71.21875 -36.941406 70.5625 -36.765625 C 70.382812 -36.691406 70.21875 -36.707031 70.0625 -36.8125 C 69.914062 -36.925781 69.820312 -37.085938 69.78125 -37.296875 C 69.78125 -37.390625 69.816406 -37.5 69.890625 -37.625 C 69.960938 -37.757812 70.050781 -37.847656 70.15625 -37.890625 C 70.9375 -38.222656 71.75 -38.523438 72.59375 -38.796875 C 81.957031 -41.898438 90.726562 -46.21875 98.90625 -51.75 C 99.90625 -52.476562 100.875 -53.234375 101.8125 -54.015625 C 101.9375 -54.140625 102.070312 -54.242188 102.21875 -54.328125 C 102.695312 -54.722656 103.039062 -55.222656 103.25 -55.828125 C 103.375 -56.179688 103.269531 -56.484375 102.9375 -56.734375 C 102.570312 -56.960938 102.160156 -57.097656 101.703125 -57.140625 C 101.617188 -57.140625 101.53125 -57.15625 101.4375 -57.1875 C 99.65625 -57.488281 97.867188 -57.640625 96.078125 -57.640625 C 94.285156 -57.640625 92.5 -57.5625 90.71875 -57.40625 C 86.664062 -57.007812 82.628906 -56.460938 78.609375 -55.765625 C 74.597656 -55.078125 70.597656 -54.304688 66.609375 -53.453125 C 54.773438 -50.953125 43.140625 -47.785156 31.703125 -43.953125 C 27.628906 -42.585938 23.585938 -41.132812 19.578125 -39.59375 C 15.578125 -38.0625 11.628906 -36.378906 7.734375 -34.546875 C 6.679688 -34.023438 5.625 -33.507812 4.5625 -33 C 4 -32.695312 3.414062 -32.394531 2.8125 -32.09375 C 2.71875 -32.0625 2.644531 -32.015625 2.59375 -31.953125 C 2.195312 -31.742188 1.785156 -31.578125 1.359375 -31.453125 C 1.148438 -31.367188 0.929688 -31.332031 0.703125 -31.34375 C 0.484375 -31.363281 0.3125 -31.460938 0.1875 -31.640625 C 0.0625 -31.890625 0.0625 -32.101562 0.1875 -32.28125 C 0.3125 -32.457031 0.472656 -32.609375 0.671875 -32.734375 C 0.703125 -32.753906 0.753906 -32.78125 0.828125 -32.8125 C 1.816406 -33.382812 2.835938 -33.945312 3.890625 -34.5 C 7.273438 -36.21875 10.722656 -37.800781 14.234375 -39.25 C 17.753906 -40.695312 21.3125 -42.054688 24.90625 -43.328125 C 39.375 -48.484375 54.125 -52.570312 69.15625 -55.59375 C 72.78125 -56.320312 76.40625 -56.988281 80.03125 -57.59375 C 83.65625 -58.195312 87.304688 -58.648438 90.984375 -58.953125 C 92.035156 -59.003906 93.101562 -59.0625 94.1875 -59.125 C 94.664062 -59.15625 95.171875 -59.1875 95.703125 -59.21875 C 97.960938 -59.21875 100.222656 -59.050781 102.484375 -58.71875 C 103.441406 -58.601562 104.363281 -58.316406 105.25 -57.859375 Z M 49.28125 -15.703125 C 49.488281 -15.660156 49.679688 -15.585938 49.859375 -15.484375 C 50.046875 -15.378906 50.179688 -15.265625 50.265625 -15.140625 C 50.359375 -15.023438 50.375 -14.910156 50.3125 -14.796875 C 50.15625 -14.609375 49.976562 -14.5 49.78125 -14.46875 C 49.59375 -14.4375 49.410156 -14.421875 49.234375 -14.421875 C 49.191406 -14.421875 49.160156 -14.421875 49.140625 -14.421875 C 45.910156 -14.421875 42.660156 -14.273438 39.390625 -13.984375 C 37.679688 -13.828125 35.945312 -13.703125 34.1875 -13.609375 C 33.613281 -13.578125 33.222656 -13.273438 33.015625 -12.703125 C 32.835938 -12.242188 32.640625 -11.789062 32.421875 -11.34375 C 32.304688 -11.082031 32.203125 -10.816406 32.109375 -10.546875 C 31.679688 -9.566406 31.273438 -8.609375 30.890625 -7.671875 C 27.578125 0.410156 24.117188 8.4375 20.515625 16.40625 C 19.492188 18.613281 18.40625 20.789062 17.25 22.9375 C 17.25 22.957031 17.234375 22.984375 17.203125 23.015625 C 16.847656 23.710938 16.394531 24.378906 15.84375 25.015625 C 15.363281 25.585938 14.734375 25.785156 13.953125 25.609375 C 13.734375 25.535156 13.546875 25.421875 13.390625 25.265625 C 13.242188 25.117188 13.171875 24.929688 13.171875 24.703125 C 13.210938 24.179688 13.3125 23.664062 13.46875 23.15625 C 13.570312 22.800781 13.6875 22.425781 13.8125 22.03125 C 14.414062 20.0625 15.050781 18.097656 15.71875 16.140625 C 18.738281 7.484375 22.253906 -0.96875 26.265625 -9.21875 C 26.640625 -10 27.078125 -10.769531 27.578125 -11.53125 C 27.703125 -11.707031 27.878906 -11.8125 28.109375 -11.84375 C 28.335938 -11.875 28.550781 -11.859375 28.75 -11.796875 C 29.125 -11.679688 29.265625 -11.394531 29.171875 -10.9375 C 29.078125 -10.488281 28.882812 -9.96875 28.59375 -9.375 C 28.3125 -8.789062 28.035156 -8.273438 27.765625 -7.828125 C 27.546875 -7.453125 27.394531 -7.175781 27.3125 -7 C 23.164062 1.90625 20.851562 7.097656 20.375 8.578125 C 20.195312 9.085938 20.109375 9.429688 20.109375 9.609375 C 20.109375 9.785156 20.171875 9.859375 20.296875 9.828125 C 20.421875 9.804688 20.554688 9.726562 20.703125 9.59375 C 20.859375 9.457031 21 9.3125 21.125 9.15625 C 21.257812 9.007812 21.347656 8.90625 21.390625 8.84375 C 21.566406 8.394531 21.757812 7.929688 21.96875 7.453125 C 22.632812 5.898438 23.296875 4.351562 23.953125 2.8125 C 24.160156 2.363281 24.363281 1.914062 24.5625 1.46875 C 25.96875 -1.882812 27.363281 -5.234375 28.75 -8.578125 C 28.820312 -8.703125 28.914062 -8.890625 29.03125 -9.140625 C 29.269531 -9.617188 29.523438 -10.179688 29.796875 -10.828125 C 30.078125 -11.472656 30.253906 -12.050781 30.328125 -12.5625 C 30.398438 -13.082031 30.265625 -13.351562 29.921875 -13.375 C 29.242188 -13.375 28.550781 -13.375 27.84375 -13.375 C 27.394531 -13.375 26.941406 -13.375 26.484375 -13.375 C 26.109375 -13.375 25.707031 -13.375 25.28125 -13.375 C 23.945312 -13.375 22.613281 -13.394531 21.28125 -13.4375 C 20.925781 -13.46875 20.597656 -13.554688 20.296875 -13.703125 C 20.265625 -13.734375 20.238281 -13.785156 20.21875 -13.859375 C 20.195312 -13.941406 20.175781 -14.03125 20.15625 -14.125 C 20.15625 -14.144531 20.15625 -14.171875 20.15625 -14.203125 C 20.15625 -14.234375 20.171875 -14.265625 20.203125 -14.296875 C 20.234375 -14.328125 20.265625 -14.359375 20.296875 -14.390625 C 20.472656 -14.515625 20.648438 -14.585938 20.828125 -14.609375 C 21.003906 -14.640625 21.191406 -14.65625 21.390625 -14.65625 C 21.441406 -14.65625 21.492188 -14.65625 21.546875 -14.65625 C 22.304688 -14.6875 23.0625 -14.710938 23.8125 -14.734375 C 25.78125 -14.859375 27.742188 -14.9375 29.703125 -14.96875 C 30.378906 -14.96875 30.90625 -15.109375 31.28125 -15.390625 C 31.65625 -15.679688 31.945312 -16.128906 32.15625 -16.734375 C 33.125 -19.242188 34.101562 -21.75 35.09375 -24.25 C 36.15625 -26.90625 37.195312 -29.566406 38.21875 -32.234375 C 39 -34.273438 39.742188 -36.328125 40.453125 -38.390625 C 40.835938 -39.472656 41.226562 -40.570312 41.625 -41.6875 C 41.625 -41.726562 41.632812 -41.757812 41.65625 -41.78125 C 41.8125 -42.257812 42.015625 -42.703125 42.265625 -43.109375 C 42.410156 -43.304688 42.585938 -43.410156 42.796875 -43.421875 C 43.015625 -43.441406 43.238281 -43.425781 43.46875 -43.375 C 43.644531 -43.28125 43.789062 -43.160156 43.90625 -43.015625 C 44.019531 -42.878906 44.0625 -42.722656 44.03125 -42.546875 C 43.9375 -41.859375 43.800781 -41.179688 43.625 -40.515625 C 42.613281 -37.210938 41.476562 -33.976562 40.21875 -30.8125 C 40.15625 -30.726562 40.109375 -30.640625 40.078125 -30.546875 C 38.941406 -27.554688 37.769531 -24.585938 36.5625 -21.640625 C 36.007812 -20.273438 35.457031 -18.914062 34.90625 -17.5625 C 34.90625 -17.53125 34.90625 -17.515625 34.90625 -17.515625 C 34.757812 -17.117188 34.609375 -16.707031 34.453125 -16.28125 C 34.304688 -15.894531 34.300781 -15.613281 34.4375 -15.4375 C 34.570312 -15.269531 34.867188 -15.1875 35.328125 -15.1875 C 35.929688 -15.1875 36.535156 -15.222656 37.140625 -15.296875 C 37.410156 -15.296875 37.679688 -15.296875 37.953125 -15.296875 C 38.015625 -15.296875 38.054688 -15.304688 38.078125 -15.328125 C 41.546875 -15.453125 45.003906 -15.578125 48.453125 -15.703125 C 48.722656 -15.734375 49 -15.734375 49.28125 -15.703125 Z M 49.28125 -15.703125 "/></g></g></g><g fill="#737373" fill-opacity="1"><g transform="translate(262.795243, 93.250691)"><g><path d="M 3.265625 -4.875 L 3.21875 -4.875 C 1.21875 -4.90625 -0.09375 -5.347656 -0.71875 -6.203125 C -1.351562 -7.066406 -1.328125 -8.210938 -0.640625 -9.640625 C -0.0664062 -10.722656 0.660156 -11.664062 1.546875 -12.46875 C 1.847656 -12.75 2.15625 -12.96875 2.46875 -13.125 C 2.78125 -13.289062 3.140625 -13.375 3.546875 -13.375 C 3.773438 -13.414062 4.039062 -13.375 4.34375 -13.25 C 4.4375 -13.226562 4.53125 -13.195312 4.625 -13.15625 C 4.863281 -13.195312 5.09375 -13.269531 5.3125 -13.375 C 5.363281 -13.414062 5.4375 -13.453125 5.53125 -13.484375 C 5.988281 -13.660156 6.472656 -13.734375 6.984375 -13.703125 C 7.179688 -13.703125 7.390625 -13.703125 7.609375 -13.703125 C 8.421875 -13.585938 9.03125 -13.25 9.4375 -12.6875 C 9.851562 -12.132812 10 -11.457031 9.875 -10.65625 C 9.8125 -10.175781 9.660156 -9.722656 9.421875 -9.296875 C 7.847656 -6.472656 5.835938 -5 3.390625 -4.875 Z M 6.53125 -12.25 C 5.445312 -12.289062 4.476562 -11.976562 3.625 -11.3125 C 2.78125 -10.644531 2.148438 -9.878906 1.734375 -9.015625 C 1.328125 -8.148438 1.21875 -7.4375 1.40625 -6.875 C 1.59375 -6.320312 2.164062 -6.171875 3.125 -6.421875 C 4.207031 -6.753906 5.164062 -7.375 6 -8.28125 C 6.832031 -9.1875 7.335938 -10.046875 7.515625 -10.859375 C 7.703125 -11.671875 7.375 -12.132812 6.53125 -12.25 Z M 6.53125 -12.25 "/></g></g></g><g fill="#737373" fill-opacity="1"><g transform="translate(273.725569, 93.250691)"><g><path d="M 9.96875 -9.8125 C 10.414062 -10.269531 10.789062 -10.523438 11.09375 -10.578125 C 11.394531 -10.628906 11.585938 -10.578125 11.671875 -10.421875 C 11.765625 -10.273438 11.707031 -10.070312 11.5 -9.8125 C 10.289062 -8.363281 8.9375 -7.109375 7.4375 -6.046875 C 5.945312 -4.992188 4.410156 -4.382812 2.828125 -4.21875 C 1.242188 -4.050781 0.285156 -4.914062 -0.046875 -6.8125 C -0.285156 -8.695312 0.851562 -12.523438 3.375 -18.296875 C 5.894531 -24.078125 7.890625 -28.8125 9.359375 -32.5 C 9.484375 -32.832031 9.671875 -33.117188 9.921875 -33.359375 C 10.253906 -33.691406 10.644531 -33.769531 11.09375 -33.59375 C 11.25 -33.519531 11.398438 -33.40625 11.546875 -33.25 C 11.703125 -33.101562 11.75 -32.84375 11.6875 -32.46875 C 5.195312 -17.0625 2.054688 -8.6875 2.265625 -7.34375 C 2.472656 -6 3.335938 -5.664062 4.859375 -6.34375 C 6.390625 -7.03125 7.570312 -7.722656 8.40625 -8.421875 C 9.238281 -9.128906 9.757812 -9.59375 9.96875 -9.8125 Z M 9.96875 -9.8125 "/></g></g></g><g fill="#737373" fill-opacity="1"><g transform="translate(283.997194, 93.250691)"><g><path d="M 18.28125 -10.828125 C 18.570312 -10.753906 18.722656 -10.648438 18.734375 -10.515625 C 18.742188 -10.378906 18.75 -10.3125 18.75 -10.3125 C 18.425781 -9.738281 18.050781 -9.210938 17.625 -8.734375 C 16.644531 -7.640625 15.507812 -6.773438 14.21875 -6.140625 C 13.59375 -5.773438 12.878906 -5.582031 12.078125 -5.5625 C 10.242188 -5.53125 9.398438 -6.421875 9.546875 -8.234375 C 9.617188 -8.617188 9.707031 -8.992188 9.8125 -9.359375 C 9.882812 -9.546875 9.9375 -9.726562 9.96875 -9.90625 C 10.144531 -10.5625 10.191406 -10.925781 10.109375 -11 C 10.035156 -11.070312 9.820312 -10.882812 9.46875 -10.4375 C 9.375 -10.351562 9.285156 -10.265625 9.203125 -10.171875 C 8.648438 -9.515625 8.085938 -8.867188 7.515625 -8.234375 C 6.453125 -7.023438 5.242188 -6.007812 3.890625 -5.1875 C 3.078125 -4.707031 2.21875 -4.453125 1.3125 -4.421875 C -0.164062 -4.359375 -0.992188 -5.039062 -1.171875 -6.46875 C -1.242188 -7.039062 -1.21875 -7.609375 -1.09375 -8.171875 C -0.488281 -10.503906 0.71875 -12.28125 2.53125 -13.5 C 4.34375 -14.71875 6.414062 -15.148438 8.75 -14.796875 C 9.40625 -14.609375 9.882812 -14.785156 10.1875 -15.328125 C 10.3125 -15.535156 10.4375 -15.75 10.5625 -15.96875 C 11.1875 -17.050781 11.800781 -18.132812 12.40625 -19.21875 C 13.550781 -21.3125 14.695312 -23.414062 15.84375 -25.53125 C 16.78125 -27.1875 17.71875 -28.859375 18.65625 -30.546875 C 18.925781 -31.066406 19.226562 -31.566406 19.5625 -32.046875 C 19.707031 -32.285156 19.890625 -32.425781 20.109375 -32.46875 C 20.335938 -32.519531 20.578125 -32.546875 20.828125 -32.546875 C 20.878906 -32.546875 20.941406 -32.546875 21.015625 -32.546875 C 21.285156 -32.546875 21.503906 -32.472656 21.671875 -32.328125 C 21.835938 -32.191406 21.875 -32.007812 21.78125 -31.78125 C 21.601562 -31.207031 21.390625 -30.660156 21.140625 -30.140625 C 19.878906 -27.609375 18.6875 -25.050781 17.5625 -22.46875 C 16.445312 -19.882812 15.347656 -17.28125 14.265625 -14.65625 C 13.910156 -13.75 13.546875 -12.84375 13.171875 -11.9375 C 12.722656 -10.882812 12.347656 -9.800781 12.046875 -8.6875 C 11.960938 -8.4375 11.921875 -8.191406 11.921875 -7.953125 C 11.921875 -7.710938 12.035156 -7.503906 12.265625 -7.328125 C 12.421875 -7.234375 12.578125 -7.21875 12.734375 -7.28125 C 12.898438 -7.34375 13.082031 -7.414062 13.28125 -7.5 C 13.300781 -7.53125 13.34375 -7.5625 13.40625 -7.59375 C 14.707031 -8.351562 15.898438 -9.257812 16.984375 -10.3125 C 17.160156 -10.488281 17.347656 -10.640625 17.546875 -10.765625 C 17.742188 -10.890625 17.988281 -10.910156 18.28125 -10.828125 Z M 8.109375 -12.171875 C 8.265625 -12.410156 8.3125 -12.644531 8.25 -12.875 C 8.1875 -13.101562 8.03125 -13.269531 7.78125 -13.375 C 7.269531 -13.65625 6.726562 -13.691406 6.15625 -13.484375 C 4.738281 -13.054688 3.550781 -12.242188 2.59375 -11.046875 C 1.644531 -9.859375 1.128906 -8.539062 1.046875 -7.09375 C 1.078125 -7.03125 1.09375 -6.984375 1.09375 -6.953125 C 1.09375 -6.828125 1.09375 -6.707031 1.09375 -6.59375 C 1.21875 -5.925781 1.625 -5.796875 2.3125 -6.203125 C 3.007812 -6.609375 3.785156 -7.265625 4.640625 -8.171875 C 5.492188 -9.078125 6.257812 -9.9375 6.9375 -10.75 C 7.625 -11.570312 8.015625 -12.046875 8.109375 -12.171875 Z M 8.109375 -12.171875 "/></g></g></g><g fill="#737373" fill-opacity="1"><g transform="translate(301.205759, 93.250691)"><g><path d="M 14.9375 -10.484375 C 15.257812 -10.296875 15.28125 -9.847656 15 -9.140625 C 14.601562 -8.617188 14.175781 -8.128906 13.71875 -7.671875 C 13.269531 -7.222656 12.78125 -6.820312 12.25 -6.46875 C 12.207031 -6.46875 12.1875 -6.453125 12.1875 -6.421875 C 11.832031 -6.171875 11.453125 -5.957031 11.046875 -5.78125 C 7.773438 -4.601562 6.101562 -5.296875 6.03125 -7.859375 C 4.695312 -6.710938 3.804688 -6.007812 3.359375 -5.75 C 2.273438 -5.101562 1.097656 -4.8125 -0.171875 -4.875 C -1.097656 -4.925781 -1.726562 -5.207031 -2.0625 -5.71875 C -2.40625 -6.238281 -2.375 -6.941406 -1.96875 -7.828125 C -1.375 -9.210938 -0.519531 -10.445312 0.59375 -11.53125 C 1.894531 -12.738281 3.34375 -13.703125 4.9375 -14.421875 C 5.789062 -14.847656 6.679688 -15.015625 7.609375 -14.921875 C 8.546875 -14.867188 9.109375 -14.34375 9.296875 -13.34375 C 9.378906 -13.039062 9.304688 -12.769531 9.078125 -12.53125 C 8.773438 -12.257812 8.425781 -12.195312 8.03125 -12.34375 C 8 -12.34375 7.957031 -12.347656 7.90625 -12.359375 C 7.863281 -12.378906 7.828125 -12.40625 7.796875 -12.4375 C 7.398438 -12.976562 7 -13.203125 6.59375 -13.109375 C 6.1875 -13.023438 5.757812 -12.847656 5.3125 -12.578125 C 3.195312 -11.335938 1.625 -9.613281 0.59375 -7.40625 C 0.539062 -7.3125 0.503906 -7.207031 0.484375 -7.09375 C 0.472656 -6.976562 0.507812 -6.882812 0.59375 -6.8125 C 0.84375 -6.726562 1.117188 -6.742188 1.421875 -6.859375 C 1.722656 -6.984375 2.023438 -7.15625 2.328125 -7.375 C 2.628906 -7.601562 2.882812 -7.796875 3.09375 -7.953125 C 3.113281 -7.984375 3.125 -8 3.125 -8 C 4.125 -8.84375 5.109375 -9.703125 6.078125 -10.578125 C 6.492188 -11.035156 7.019531 -11.289062 7.65625 -11.34375 C 8.5625 -11.34375 8.941406 -10.9375 8.796875 -10.125 C 8.710938 -9.820312 8.617188 -9.519531 8.515625 -9.21875 C 8.160156 -7.914062 8.144531 -7.148438 8.46875 -6.921875 C 8.800781 -6.703125 9.304688 -6.703125 9.984375 -6.921875 C 10.671875 -7.148438 11.351562 -7.582031 12.03125 -8.21875 C 12.707031 -8.863281 13.28125 -9.445312 13.75 -9.96875 C 14.21875 -10.5 14.613281 -10.671875 14.9375 -10.484375 Z M 14.9375 -10.484375 "/></g></g></g><g fill="#737373" fill-opacity="1"><g transform="translate(314.853228, 93.250691)"><g><path d="M 18.171875 -11.03125 C 18.285156 -11.0625 18.410156 -11.0625 18.546875 -11.03125 C 18.679688 -11 18.785156 -10.9375 18.859375 -10.84375 C 18.941406 -10.695312 18.9375 -10.546875 18.84375 -10.390625 C 18.757812 -10.242188 18.625 -10.128906 18.4375 -10.046875 C 17.207031 -9.441406 15.96875 -8.816406 14.71875 -8.171875 C 13.25 -7.421875 11.773438 -6.664062 10.296875 -5.90625 C 10.078125 -5.820312 9.863281 -5.71875 9.65625 -5.59375 C 9.320312 -5.414062 8.992188 -5.253906 8.671875 -5.109375 C 7.910156 -4.734375 7.40625 -4.15625 7.15625 -3.375 C 6.5 -1.507812 5.804688 0.34375 5.078125 2.1875 C 4.148438 4.632812 2.984375 6.972656 1.578125 9.203125 C 0.796875 10.472656 -0.144531 11.601562 -1.25 12.59375 C -2.582031 13.84375 -4.109375 14.632812 -5.828125 14.96875 C -8.671875 15.539062 -11.40625 15.351562 -14.03125 14.40625 C -15.125 14.019531 -16.0625 13.40625 -16.84375 12.5625 C -17.894531 11.414062 -17.941406 10.191406 -16.984375 8.890625 C -16.554688 8.335938 -16.082031 7.820312 -15.5625 7.34375 C -14.394531 6.289062 -13.132812 5.347656 -11.78125 4.515625 C -6.90625 1.390625 -1.898438 -1.476562 3.234375 -4.09375 C 3.253906 -4.09375 3.265625 -4.09375 3.265625 -4.09375 C 3.804688 -4.375 4.335938 -4.660156 4.859375 -4.953125 C 4.941406 -5.023438 5.054688 -5.175781 5.203125 -5.40625 C 5.359375 -5.632812 5.472656 -5.859375 5.546875 -6.078125 C 5.617188 -6.304688 5.597656 -6.472656 5.484375 -6.578125 C 5.367188 -6.679688 5.082031 -6.628906 4.625 -6.421875 C 4.445312 -6.347656 4.285156 -6.273438 4.140625 -6.203125 C 3.742188 -6.003906 3.34375 -5.832031 2.9375 -5.6875 C 0.59375 -5.125 -0.578125 -6.023438 -0.578125 -8.390625 C -0.523438 -9.828125 -0.0976562 -11.117188 0.703125 -12.265625 C 1.515625 -13.410156 2.539062 -14.304688 3.78125 -14.953125 C 5.03125 -15.609375 6.382812 -15.859375 7.84375 -15.703125 C 7.988281 -15.703125 8.140625 -15.679688 8.296875 -15.640625 C 8.691406 -15.585938 9.09375 -15.5625 9.5 -15.5625 C 9.90625 -15.5625 10.320312 -15.648438 10.75 -15.828125 C 11.195312 -16.003906 11.535156 -15.953125 11.765625 -15.671875 C 11.992188 -15.390625 12.03125 -15.023438 11.875 -14.578125 C 11.476562 -13.722656 11.085938 -12.859375 10.703125 -11.984375 C 10.429688 -11.441406 10.171875 -10.882812 9.921875 -10.3125 C 9.648438 -9.707031 9.382812 -9.085938 9.125 -8.453125 C 8.75 -7.628906 8.691406 -7.195312 8.953125 -7.15625 C 9.210938 -7.113281 9.660156 -7.257812 10.296875 -7.59375 C 10.378906 -7.625 10.46875 -7.648438 10.5625 -7.671875 C 11.707031 -8.222656 12.863281 -8.765625 14.03125 -9.296875 C 14.851562 -9.671875 15.671875 -10.050781 16.484375 -10.4375 C 17.035156 -10.6875 17.597656 -10.882812 18.171875 -11.03125 Z M 3.546875 0.015625 C 3.960938 -1.191406 4.140625 -1.984375 4.078125 -2.359375 C 4.023438 -2.734375 3.765625 -2.832031 3.296875 -2.65625 C 2.828125 -2.476562 2.21875 -2.148438 1.46875 -1.671875 C 0.976562 -1.367188 0.445312 -1.066406 -0.125 -0.765625 C -3.59375 1.117188 -6.972656 3.128906 -10.265625 5.265625 C -11.722656 6.117188 -13.019531 7.148438 -14.15625 8.359375 C -15.363281 9.648438 -15.320312 10.796875 -14.03125 11.796875 C -13.28125 12.398438 -12.441406 12.820312 -11.515625 13.0625 C -10.585938 13.300781 -9.566406 13.421875 -8.453125 13.421875 C -7.148438 13.515625 -5.941406 13.269531 -4.828125 12.6875 C -3.722656 12.113281 -2.695312 11.253906 -1.75 10.109375 C -1.1875 9.347656 -0.644531 8.566406 -0.125 7.765625 C 1.382812 5.296875 2.609375 2.710938 3.546875 0.015625 Z M 2.1875 -7.265625 C 2.539062 -7.117188 3.054688 -7.25 3.734375 -7.65625 C 4.410156 -8.070312 5.101562 -8.640625 5.8125 -9.359375 C 6.53125 -10.078125 7.097656 -10.8125 7.515625 -11.5625 C 7.941406 -12.320312 8.050781 -12.960938 7.84375 -13.484375 C 7.789062 -13.628906 7.703125 -13.765625 7.578125 -13.890625 C 7.359375 -14.148438 7.113281 -14.273438 6.84375 -14.265625 C 6.570312 -14.253906 6.285156 -14.207031 5.984375 -14.125 C 4.984375 -13.726562 4.097656 -13.046875 3.328125 -12.078125 C 2.566406 -11.109375 2.054688 -10.148438 1.796875 -9.203125 C 1.546875 -8.253906 1.675781 -7.609375 2.1875 -7.265625 Z M 2.1875 -7.265625 "/></g></g></g><g fill="#737373" fill-opacity="1"><g transform="translate(332.432324, 93.250691)"><g><path d="M 11.734375 -7.90625 C 10.941406 -7.125 10.015625 -6.453125 8.953125 -5.890625 C 7.898438 -5.335938 7.015625 -4.972656 6.296875 -4.796875 C 5.585938 -4.628906 4.851562 -4.535156 4.09375 -4.515625 C 2.882812 -4.453125 1.773438 -4.613281 0.765625 -5 C -0.898438 -5.675781 -1.476562 -6.957031 -0.96875 -8.84375 C -0.488281 -10.476562 0.484375 -11.753906 1.953125 -12.671875 C 3.421875 -13.597656 4.9375 -14.046875 6.5 -14.015625 C 6.5 -14.015625 6.515625 -14.015625 6.546875 -14.015625 C 6.941406 -14.046875 7.316406 -14.019531 7.671875 -13.9375 C 8.273438 -13.71875 8.660156 -13.359375 8.828125 -12.859375 C 8.992188 -12.367188 8.882812 -11.820312 8.5 -11.21875 C 7.625 -9.882812 6.429688 -9.144531 4.921875 -9 C 3.921875 -8.894531 2.953125 -8.941406 2.015625 -9.140625 C 1.835938 -9.171875 1.679688 -9.125 1.546875 -9 C 1.410156 -8.875 1.328125 -8.722656 1.296875 -8.546875 C 1.023438 -7.359375 1.390625 -6.601562 2.390625 -6.28125 C 3.617188 -5.851562 4.898438 -5.851562 6.234375 -6.28125 C 7.773438 -6.757812 9.238281 -7.660156 10.625 -8.984375 C 12.007812 -10.316406 12.804688 -10.9375 13.015625 -10.84375 C 13.234375 -10.757812 13.300781 -10.507812 13.21875 -10.09375 C 13.019531 -9.414062 12.523438 -8.6875 11.734375 -7.90625 Z M 2.96875 -11.21875 C 2.882812 -11.125 2.820312 -11.015625 2.78125 -10.890625 C 2.75 -10.773438 2.796875 -10.671875 2.921875 -10.578125 C 3.398438 -10.304688 3.921875 -10.207031 4.484375 -10.28125 C 5.046875 -10.351562 5.519531 -10.5625 5.90625 -10.90625 C 6.300781 -11.257812 6.472656 -11.691406 6.421875 -12.203125 C 6.378906 -12.378906 6.28125 -12.492188 6.125 -12.546875 C 5.976562 -12.597656 5.832031 -12.609375 5.6875 -12.578125 C 4.664062 -12.398438 3.757812 -11.945312 2.96875 -11.21875 Z M 2.96875 -11.21875 "/></g></g></g><g fill="#737373" fill-opacity="1"><g transform="translate(344.412461, 93.250691)"><g><path d="M 9.875 -12.640625 C 9.75 -11.691406 9.300781 -11.070312 8.53125 -10.78125 C 7.769531 -10.5 7.519531 -10.878906 7.78125 -11.921875 C 8.050781 -12.960938 7.582031 -13.222656 6.375 -12.703125 C 5.164062 -12.191406 4.171875 -11.546875 3.390625 -10.765625 C 2.179688 -9.523438 1.113281 -8.191406 0.1875 -6.765625 C 0.09375 -6.648438 0.015625 -6.550781 -0.046875 -6.46875 C -0.316406 -6.0625 -0.585938 -5.679688 -0.859375 -5.328125 C -1.035156 -5.078125 -1.242188 -4.921875 -1.484375 -4.859375 C -1.734375 -4.804688 -1.976562 -4.800781 -2.21875 -4.84375 C -2.457031 -4.863281 -2.632812 -4.945312 -2.75 -5.09375 C -2.875 -5.25 -2.890625 -5.429688 -2.796875 -5.640625 C -2.648438 -6.015625 -2.472656 -6.390625 -2.265625 -6.765625 C -1.023438 -9.054688 0.226562 -11.359375 1.5 -13.671875 C 1.53125 -13.691406 1.546875 -13.71875 1.546875 -13.75 C 1.722656 -14.101562 1.9375 -14.429688 2.1875 -14.734375 C 2.457031 -15.035156 2.769531 -15.160156 3.125 -15.109375 C 3.476562 -15.054688 3.71875 -14.84375 3.84375 -14.46875 C 4 -13.988281 4.128906 -13.71875 4.234375 -13.65625 C 4.347656 -13.59375 4.597656 -13.640625 4.984375 -13.796875 C 5.804688 -14.097656 6.609375 -14.304688 7.390625 -14.421875 C 8.171875 -14.546875 8.8125 -14.515625 9.3125 -14.328125 C 9.8125 -14.148438 10 -13.585938 9.875 -12.640625 Z M 9.875 -12.640625 "/></g></g></g><g fill="#737373" fill-opacity="1"><g transform="translate(354.704665, 93.250691)"><g/></g></g><g fill="#737373" fill-opacity="1"><g transform="translate(370.266478, 93.250691)"><g><path d="M 111.25 -18.8125 C 108.632812 -19.113281 105.992188 -19.265625 103.328125 -19.265625 C 102.160156 -19.304688 100.972656 -19.34375 99.765625 -19.375 C 88.773438 -19.820312 77.757812 -19.9375 66.71875 -19.71875 C 66.164062 -19.71875 65.710938 -19.71875 65.359375 -19.71875 C 64.753906 -19.757812 64.3125 -19.753906 64.03125 -19.703125 C 63.757812 -19.660156 63.539062 -19.507812 63.375 -19.25 C 63.207031 -19 63.015625 -18.585938 62.796875 -18.015625 C 62.648438 -17.679688 62.472656 -17.269531 62.265625 -16.78125 C 60.429688 -12.769531 58.742188 -8.691406 57.203125 -4.546875 C 56.203125 -1.867188 55.425781 0.875 54.875 3.6875 C 54.664062 4.5625 54.59375 5.414062 54.65625 6.25 C 54.71875 7.082031 55.09375 7.828125 55.78125 8.484375 C 55.875 8.546875 55.90625 8.628906 55.875 8.734375 C 55.851562 8.835938 55.796875 8.929688 55.703125 9.015625 C 55.609375 9.109375 55.503906 9.171875 55.390625 9.203125 C 53.753906 9.453125 52.773438 8.867188 52.453125 7.453125 C 52.253906 6.648438 52.21875 5.832031 52.34375 5 C 52.34375 4.9375 52.34375 4.890625 52.34375 4.859375 C 52.46875 3.421875 52.722656 1.988281 53.109375 0.5625 C 53.503906 -0.851562 53.941406 -2.273438 54.421875 -3.703125 C 55.972656 -7.984375 57.679688 -12.210938 59.546875 -16.390625 C 59.640625 -16.566406 59.71875 -16.742188 59.78125 -16.921875 C 59.875 -17.128906 59.972656 -17.34375 60.078125 -17.5625 C 60.234375 -17.863281 60.375 -18.164062 60.5 -18.46875 C 60.625 -18.769531 60.671875 -19.082031 60.640625 -19.40625 C 60.492188 -19.53125 60.34375 -19.601562 60.1875 -19.625 C 60.039062 -19.65625 59.890625 -19.660156 59.734375 -19.640625 C 59.703125 -19.640625 59.664062 -19.640625 59.625 -19.640625 C 58.34375 -19.640625 57.046875 -19.625 55.734375 -19.59375 C 55.378906 -19.59375 55.003906 -19.59375 54.609375 -19.59375 C 54.128906 -19.570312 53.722656 -19.421875 53.390625 -19.140625 C 53.066406 -18.867188 52.753906 -18.535156 52.453125 -18.140625 C 52.046875 -17.628906 51.644531 -17.117188 51.25 -16.609375 C 49.5625 -14.453125 47.863281 -12.316406 46.15625 -10.203125 C 43.613281 -7.128906 40.957031 -4.164062 38.1875 -1.3125 C 35.425781 1.539062 32.492188 4.210938 29.390625 6.703125 C 25.492188 9.921875 21.359375 12.75 16.984375 15.1875 C 10.285156 18.78125 3.265625 20.484375 -4.078125 20.296875 C -10.992188 20.140625 -17.226562 18.273438 -22.78125 14.703125 C -24.351562 13.691406 -25.738281 12.484375 -26.9375 11.078125 C -27.75 10.078125 -28.390625 8.992188 -28.859375 7.828125 C -29.335938 6.671875 -29.578125 5.414062 -29.578125 4.0625 C -29.503906 2.425781 -29.128906 0.910156 -28.453125 -0.484375 C -27.773438 -1.878906 -26.832031 -3.144531 -25.625 -4.28125 C -23.96875 -5.882812 -22.144531 -7.242188 -20.15625 -8.359375 C -18.21875 -9.484375 -16.222656 -10.46875 -14.171875 -11.3125 C -12.117188 -12.15625 -10.050781 -12.90625 -7.96875 -13.5625 C -4.59375 -14.644531 -1.179688 -15.554688 2.265625 -16.296875 C 5.710938 -17.046875 9.171875 -17.679688 12.640625 -18.203125 C 20.867188 -19.335938 29.125 -20.085938 37.40625 -20.453125 C 41.625 -20.722656 45.835938 -20.859375 50.046875 -20.859375 C 51.191406 -20.828125 52.082031 -21.3125 52.71875 -22.3125 C 53.832031 -23.875 54.953125 -25.445312 56.078125 -27.03125 C 57.816406 -29.445312 59.53125 -31.898438 61.21875 -34.390625 C 69.0625 -46.109375 76.582031 -58.019531 83.78125 -70.125 C 84.382812 -71.15625 84.972656 -72.203125 85.546875 -73.265625 C 85.816406 -73.796875 86.101562 -74.335938 86.40625 -74.890625 C 86.769531 -75.585938 87.34375 -75.976562 88.125 -76.0625 C 88.550781 -76.0625 88.863281 -75.941406 89.0625 -75.703125 C 89.257812 -75.460938 89.28125 -75.140625 89.125 -74.734375 C 88.976562 -74.410156 88.804688 -74.097656 88.609375 -73.796875 C 87.441406 -71.710938 86.40625 -69.597656 85.5 -67.453125 C 85.15625 -66.703125 84.820312 -65.960938 84.5 -65.234375 C 81.332031 -58.359375 78.148438 -51.472656 74.953125 -44.578125 C 72.503906 -39.273438 70.039062 -33.953125 67.5625 -28.609375 C 66.84375 -27.035156 66.132812 -25.460938 65.4375 -23.890625 C 65.28125 -23.566406 65.128906 -23.253906 64.984375 -22.953125 C 64.953125 -22.878906 64.925781 -22.800781 64.90625 -22.71875 C 64.800781 -22.5 64.71875 -22.28125 64.65625 -22.0625 C 64.601562 -21.851562 64.625 -21.648438 64.71875 -21.453125 C 64.925781 -21.296875 65.164062 -21.210938 65.4375 -21.203125 C 65.707031 -21.191406 65.960938 -21.1875 66.203125 -21.1875 C 66.390625 -21.207031 66.5625 -21.21875 66.71875 -21.21875 C 67.851562 -21.195312 69 -21.195312 70.15625 -21.21875 C 71.71875 -21.21875 73.285156 -21.207031 74.859375 -21.1875 C 83.421875 -21.03125 91.992188 -20.84375 100.578125 -20.625 C 103.390625 -20.570312 106.179688 -20.457031 108.953125 -20.28125 C 109.203125 -20.25 109.460938 -20.234375 109.734375 -20.234375 C 109.878906 -20.234375 110.046875 -20.234375 110.234375 -20.234375 C 110.585938 -20.234375 110.929688 -20.203125 111.265625 -20.140625 C 111.597656 -20.078125 111.914062 -19.957031 112.21875 -19.78125 C 112.28125 -19.738281 112.320312 -19.671875 112.34375 -19.578125 C 112.375 -19.492188 112.375 -19.425781 112.34375 -19.375 C 112.34375 -19.269531 112.304688 -19.179688 112.234375 -19.109375 C 112.160156 -19.035156 112.097656 -18.984375 112.046875 -18.953125 C 111.796875 -18.859375 111.53125 -18.8125 111.25 -18.8125 Z M 49.890625 -18.59375 C 49.992188 -18.78125 50.003906 -18.945312 49.921875 -19.09375 C 49.847656 -19.25 49.722656 -19.328125 49.546875 -19.328125 C 49.273438 -19.359375 48.988281 -19.359375 48.6875 -19.328125 C 48.53125 -19.328125 48.378906 -19.328125 48.234375 -19.328125 C 37.867188 -19.203125 27.5 -18.488281 17.125 -17.1875 C 13.15625 -16.707031 9.207031 -16.078125 5.28125 -15.296875 C 1.363281 -14.515625 -2.519531 -13.53125 -6.375 -12.34375 C -8.4375 -11.71875 -10.46875 -10.992188 -12.46875 -10.171875 C -14.476562 -9.359375 -16.4375 -8.390625 -18.34375 -7.265625 C -20.332031 -6.148438 -22.144531 -4.789062 -23.78125 -3.1875 C -25.6875 -1.226562 -26.757812 0.859375 -27 3.078125 C -27.238281 5.296875 -26.644531 7.429688 -25.21875 9.484375 C -24.15625 10.929688 -22.890625 12.164062 -21.421875 13.1875 C -16.078125 16.988281 -9.707031 18.925781 -2.3125 19 C -0.414062 19 1.757812 18.753906 4.21875 18.265625 C 6.664062 17.753906 9.023438 17.003906 11.296875 16.015625 C 13.578125 15.035156 15.785156 13.882812 17.921875 12.5625 C 23.210938 9.300781 28.109375 5.507812 32.609375 1.1875 C 35.722656 -1.726562 38.65625 -4.800781 41.40625 -8.03125 C 44.164062 -11.269531 46.84375 -14.5625 49.4375 -17.90625 C 49.59375 -18.15625 49.742188 -18.382812 49.890625 -18.59375 Z M 62.5 -22.84375 C 64.488281 -27.375 66.535156 -31.890625 68.640625 -36.390625 C 68.742188 -36.640625 69.066406 -37.347656 69.609375 -38.515625 C 70.148438 -39.691406 70.769531 -41.054688 71.46875 -42.609375 C 72.175781 -44.171875 72.828125 -45.644531 73.421875 -47.03125 C 74.015625 -48.414062 74.429688 -49.453125 74.671875 -50.140625 C 74.910156 -50.835938 74.835938 -50.90625 74.453125 -50.34375 C 74.359375 -50.21875 74.28125 -50.097656 74.21875 -49.984375 C 73.894531 -49.492188 73.582031 -49.007812 73.28125 -48.53125 C 70.769531 -44.632812 68.242188 -40.742188 65.703125 -36.859375 C 63.160156 -32.984375 60.535156 -29.15625 57.828125 -25.375 C 57.554688 -25.019531 57.285156 -24.644531 57.015625 -24.25 C 56.492188 -23.53125 55.976562 -22.8125 55.46875 -22.09375 C 55.269531 -21.789062 55.210938 -21.535156 55.296875 -21.328125 C 55.390625 -21.128906 55.597656 -21.03125 55.921875 -21.03125 C 56.472656 -21.03125 57.015625 -21.046875 57.546875 -21.078125 C 58.398438 -21.148438 59.242188 -21.1875 60.078125 -21.1875 C 60.722656 -21.15625 61.222656 -21.289062 61.578125 -21.59375 C 61.941406 -21.894531 62.25 -22.3125 62.5 -22.84375 Z M 62.5 -22.84375 "/></g></g></g><g fill="#737373" fill-opacity="1"><g transform="translate(435.519041, 93.250691)"><g><path d="M 16.296875 -10.265625 C 16.515625 -9.992188 16.238281 -9.492188 15.46875 -8.765625 C 14.707031 -8.035156 13.894531 -7.425781 13.03125 -6.9375 C 12.164062 -6.445312 11.164062 -5.953125 10.03125 -5.453125 C 9.269531 -5.117188 8.460938 -5.007812 7.609375 -5.125 C 6.765625 -5.238281 6.34375 -5.753906 6.34375 -6.671875 C 6.34375 -7.585938 6.554688 -8.5 6.984375 -9.40625 C 7.398438 -10.34375 7.488281 -10.820312 7.25 -10.84375 C 7.007812 -10.875 6.515625 -10.648438 5.765625 -10.171875 C 3.796875 -8.878906 1.96875 -7.40625 0.28125 -5.75 C -0.164062 -5.195312 -0.738281 -4.894531 -1.4375 -4.84375 C -1.789062 -4.84375 -2.066406 -4.953125 -2.265625 -5.171875 C -2.472656 -5.398438 -2.5 -5.644531 -2.34375 -5.90625 C -1.132812 -8.144531 0.0820312 -10.351562 1.3125 -12.53125 C 1.59375 -12.988281 2.003906 -13.269531 2.546875 -13.375 C 2.785156 -13.414062 3.003906 -13.34375 3.203125 -13.15625 C 3.398438 -12.976562 3.5 -12.769531 3.5 -12.53125 C 3.46875 -12.3125 3.378906 -12.050781 3.234375 -11.75 C 3.160156 -11.570312 3.09375 -11.398438 3.03125 -11.234375 C 2.96875 -11.066406 2.945312 -10.925781 2.96875 -10.8125 C 2.988281 -10.707031 3.078125 -10.675781 3.234375 -10.71875 C 3.441406 -10.832031 3.644531 -10.953125 3.84375 -11.078125 C 4.363281 -11.378906 4.867188 -11.664062 5.359375 -11.9375 C 5.773438 -12.1875 6.21875 -12.40625 6.6875 -12.59375 C 7.15625 -12.789062 7.644531 -12.921875 8.15625 -12.984375 C 8.976562 -13.046875 9.5625 -12.863281 9.90625 -12.4375 C 10.25 -12.007812 10.289062 -11.414062 10.03125 -10.65625 C 9.75 -9.976562 9.457031 -9.300781 9.15625 -8.625 C 8.789062 -7.988281 8.726562 -7.503906 8.96875 -7.171875 C 9.21875 -6.847656 10.363281 -7.226562 12.40625 -8.3125 L 13.953125 -9.21875 C 15.410156 -10.15625 16.191406 -10.503906 16.296875 -10.265625 Z M 16.296875 -10.265625 "/></g></g></g><g fill="#737373" fill-opacity="1"><g transform="translate(450.607407, 93.250691)"><g><path d="M 18.28125 -10.828125 C 18.570312 -10.753906 18.722656 -10.648438 18.734375 -10.515625 C 18.742188 -10.378906 18.75 -10.3125 18.75 -10.3125 C 18.425781 -9.738281 18.050781 -9.210938 17.625 -8.734375 C 16.644531 -7.640625 15.507812 -6.773438 14.21875 -6.140625 C 13.59375 -5.773438 12.878906 -5.582031 12.078125 -5.5625 C 10.242188 -5.53125 9.398438 -6.421875 9.546875 -8.234375 C 9.617188 -8.617188 9.707031 -8.992188 9.8125 -9.359375 C 9.882812 -9.546875 9.9375 -9.726562 9.96875 -9.90625 C 10.144531 -10.5625 10.191406 -10.925781 10.109375 -11 C 10.035156 -11.070312 9.820312 -10.882812 9.46875 -10.4375 C 9.375 -10.351562 9.285156 -10.265625 9.203125 -10.171875 C 8.648438 -9.515625 8.085938 -8.867188 7.515625 -8.234375 C 6.453125 -7.023438 5.242188 -6.007812 3.890625 -5.1875 C 3.078125 -4.707031 2.21875 -4.453125 1.3125 -4.421875 C -0.164062 -4.359375 -0.992188 -5.039062 -1.171875 -6.46875 C -1.242188 -7.039062 -1.21875 -7.609375 -1.09375 -8.171875 C -0.488281 -10.503906 0.71875 -12.28125 2.53125 -13.5 C 4.34375 -14.71875 6.414062 -15.148438 8.75 -14.796875 C 9.40625 -14.609375 9.882812 -14.785156 10.1875 -15.328125 C 10.3125 -15.535156 10.4375 -15.75 10.5625 -15.96875 C 11.1875 -17.050781 11.800781 -18.132812 12.40625 -19.21875 C 13.550781 -21.3125 14.695312 -23.414062 15.84375 -25.53125 C 16.78125 -27.1875 17.71875 -28.859375 18.65625 -30.546875 C 18.925781 -31.066406 19.226562 -31.566406 19.5625 -32.046875 C 19.707031 -32.285156 19.890625 -32.425781 20.109375 -32.46875 C 20.335938 -32.519531 20.578125 -32.546875 20.828125 -32.546875 C 20.878906 -32.546875 20.941406 -32.546875 21.015625 -32.546875 C 21.285156 -32.546875 21.503906 -32.472656 21.671875 -32.328125 C 21.835938 -32.191406 21.875 -32.007812 21.78125 -31.78125 C 21.601562 -31.207031 21.390625 -30.660156 21.140625 -30.140625 C 19.878906 -27.609375 18.6875 -25.050781 17.5625 -22.46875 C 16.445312 -19.882812 15.347656 -17.28125 14.265625 -14.65625 C 13.910156 -13.75 13.546875 -12.84375 13.171875 -11.9375 C 12.722656 -10.882812 12.347656 -9.800781 12.046875 -8.6875 C 11.960938 -8.4375 11.921875 -8.191406 11.921875 -7.953125 C 11.921875 -7.710938 12.035156 -7.503906 12.265625 -7.328125 C 12.421875 -7.234375 12.578125 -7.21875 12.734375 -7.28125 C 12.898438 -7.34375 13.082031 -7.414062 13.28125 -7.5 C 13.300781 -7.53125 13.34375 -7.5625 13.40625 -7.59375 C 14.707031 -8.351562 15.898438 -9.257812 16.984375 -10.3125 C 17.160156 -10.488281 17.347656 -10.640625 17.546875 -10.765625 C 17.742188 -10.890625 17.988281 -10.910156 18.28125 -10.828125 Z M 8.109375 -12.171875 C 8.265625 -12.410156 8.3125 -12.644531 8.25 -12.875 C 8.1875 -13.101562 8.03125 -13.269531 7.78125 -13.375 C 7.269531 -13.65625 6.726562 -13.691406 6.15625 -13.484375 C 4.738281 -13.054688 3.550781 -12.242188 2.59375 -11.046875 C 1.644531 -9.859375 1.128906 -8.539062 1.046875 -7.09375 C 1.078125 -7.03125 1.09375 -6.984375 1.09375 -6.953125 C 1.09375 -6.828125 1.09375 -6.707031 1.09375 -6.59375 C 1.21875 -5.925781 1.625 -5.796875 2.3125 -6.203125 C 3.007812 -6.609375 3.785156 -7.265625 4.640625 -8.171875 C 5.492188 -9.078125 6.257812 -9.9375 6.9375 -10.75 C 7.625 -11.570312 8.015625 -12.046875 8.109375 -12.171875 Z M 8.109375 -12.171875 "/></g></g></g><g fill="#737373" fill-opacity="1"><g transform="translate(467.81595, 93.250691)"><g><path d="M 11.734375 -7.90625 C 10.941406 -7.125 10.015625 -6.453125 8.953125 -5.890625 C 7.898438 -5.335938 7.015625 -4.972656 6.296875 -4.796875 C 5.585938 -4.628906 4.851562 -4.535156 4.09375 -4.515625 C 2.882812 -4.453125 1.773438 -4.613281 0.765625 -5 C -0.898438 -5.675781 -1.476562 -6.957031 -0.96875 -8.84375 C -0.488281 -10.476562 0.484375 -11.753906 1.953125 -12.671875 C 3.421875 -13.597656 4.9375 -14.046875 6.5 -14.015625 C 6.5 -14.015625 6.515625 -14.015625 6.546875 -14.015625 C 6.941406 -14.046875 7.316406 -14.019531 7.671875 -13.9375 C 8.273438 -13.71875 8.660156 -13.359375 8.828125 -12.859375 C 8.992188 -12.367188 8.882812 -11.820312 8.5 -11.21875 C 7.625 -9.882812 6.429688 -9.144531 4.921875 -9 C 3.921875 -8.894531 2.953125 -8.941406 2.015625 -9.140625 C 1.835938 -9.171875 1.679688 -9.125 1.546875 -9 C 1.410156 -8.875 1.328125 -8.722656 1.296875 -8.546875 C 1.023438 -7.359375 1.390625 -6.601562 2.390625 -6.28125 C 3.617188 -5.851562 4.898438 -5.851562 6.234375 -6.28125 C 7.773438 -6.757812 9.238281 -7.660156 10.625 -8.984375 C 12.007812 -10.316406 12.804688 -10.9375 13.015625 -10.84375 C 13.234375 -10.757812 13.300781 -10.507812 13.21875 -10.09375 C 13.019531 -9.414062 12.523438 -8.6875 11.734375 -7.90625 Z M 2.96875 -11.21875 C 2.882812 -11.125 2.820312 -11.015625 2.78125 -10.890625 C 2.75 -10.773438 2.796875 -10.671875 2.921875 -10.578125 C 3.398438 -10.304688 3.921875 -10.207031 4.484375 -10.28125 C 5.046875 -10.351562 5.519531 -10.5625 5.90625 -10.90625 C 6.300781 -11.257812 6.472656 -11.691406 6.421875 -12.203125 C 6.378906 -12.378906 6.28125 -12.492188 6.125 -12.546875 C 5.976562 -12.597656 5.832031 -12.609375 5.6875 -12.578125 C 4.664062 -12.398438 3.757812 -11.945312 2.96875 -11.21875 Z M 2.96875 -11.21875 "/></g></g></g><g fill="#737373" fill-opacity="1"><g transform="translate(479.796087, 93.250691)"><g><path d="M 9.875 -12.640625 C 9.75 -11.691406 9.300781 -11.070312 8.53125 -10.78125 C 7.769531 -10.5 7.519531 -10.878906 7.78125 -11.921875 C 8.050781 -12.960938 7.582031 -13.222656 6.375 -12.703125 C 5.164062 -12.191406 4.171875 -11.546875 3.390625 -10.765625 C 2.179688 -9.523438 1.113281 -8.191406 0.1875 -6.765625 C 0.09375 -6.648438 0.015625 -6.550781 -0.046875 -6.46875 C -0.316406 -6.0625 -0.585938 -5.679688 -0.859375 -5.328125 C -1.035156 -5.078125 -1.242188 -4.921875 -1.484375 -4.859375 C -1.734375 -4.804688 -1.976562 -4.800781 -2.21875 -4.84375 C -2.457031 -4.863281 -2.632812 -4.945312 -2.75 -5.09375 C -2.875 -5.25 -2.890625 -5.429688 -2.796875 -5.640625 C -2.648438 -6.015625 -2.472656 -6.390625 -2.265625 -6.765625 C -1.023438 -9.054688 0.226562 -11.359375 1.5 -13.671875 C 1.53125 -13.691406 1.546875 -13.71875 1.546875 -13.75 C 1.722656 -14.101562 1.9375 -14.429688 2.1875 -14.734375 C 2.457031 -15.035156 2.769531 -15.160156 3.125 -15.109375 C 3.476562 -15.054688 3.71875 -14.84375 3.84375 -14.46875 C 4 -13.988281 4.128906 -13.71875 4.234375 -13.65625 C 4.347656 -13.59375 4.597656 -13.640625 4.984375 -13.796875 C 5.804688 -14.097656 6.609375 -14.304688 7.390625 -14.421875 C 8.171875 -14.546875 8.8125 -14.515625 9.3125 -14.328125 C 9.8125 -14.148438 10 -13.585938 9.875 -12.640625 Z M 9.875 -12.640625 "/></g></g></g><g fill="#737373" fill-opacity="1"><g transform="translate(490.088269, 93.250691)"><g><path d="M 9.96875 -10.4375 C 7.789062 -9.625 6.222656 -8.960938 5.265625 -8.453125 C 4.566406 -8.117188 4.164062 -7.835938 4.0625 -7.609375 C 3.957031 -7.378906 4.035156 -6.960938 4.296875 -6.359375 C 4.296875 -6.328125 4.316406 -6.285156 4.359375 -6.234375 C 4.660156 -5.503906 4.84375 -4.75 4.90625 -3.96875 C 5 -2.394531 3.65625 -1.289062 0.875 -0.65625 C -1.90625 -0.03125 -3.765625 -0.0078125 -4.703125 -0.59375 C -5.640625 -1.1875 -5.925781 -1.9375 -5.5625 -2.84375 C -5.195312 -3.75 -4.253906 -4.664062 -2.734375 -5.59375 C -1.210938 -6.53125 -0.195312 -7.203125 0.3125 -7.609375 C 0.832031 -8.023438 0.988281 -8.488281 0.78125 -9 C 0.707031 -9.175781 0.632812 -9.351562 0.5625 -9.53125 C 0.375 -9.957031 0.1875 -10.394531 0 -10.84375 C -0.351562 -11.664062 -0.503906 -12.472656 -0.453125 -13.265625 C -0.410156 -14.066406 -0.117188 -14.738281 0.421875 -15.28125 C 0.960938 -15.820312 1.800781 -16.113281 2.9375 -16.15625 C 3.582031 -16.1875 4.160156 -16.101562 4.671875 -15.90625 C 5.179688 -15.707031 5.585938 -15.335938 5.890625 -14.796875 C 6.128906 -14.429688 6.050781 -14.097656 5.65625 -13.796875 C 5.394531 -13.585938 5.113281 -13.554688 4.8125 -13.703125 C 4.625 -13.785156 4.441406 -13.90625 4.265625 -14.0625 C 4.265625 -14.101562 4.265625 -14.125 4.265625 -14.125 C 4.179688 -14.175781 4.101562 -14.226562 4.03125 -14.28125 C 3.945312 -14.40625 3.859375 -14.503906 3.765625 -14.578125 C 3.410156 -14.835938 3.050781 -14.914062 2.6875 -14.8125 C 2.320312 -14.707031 2.050781 -14.429688 1.875 -13.984375 C 1.75 -13.617188 1.6875 -13.253906 1.6875 -12.890625 C 1.71875 -12.429688 1.820312 -11.988281 2 -11.5625 C 2.125 -11.300781 2.234375 -11.0625 2.328125 -10.84375 C 2.554688 -10.238281 2.742188 -9.820312 2.890625 -9.59375 C 3.046875 -9.375 3.226562 -9.28125 3.4375 -9.3125 C 3.65625 -9.34375 5.601562 -10.039062 9.28125 -11.40625 C 10.082031 -11.664062 10.3125 -11.34375 9.96875 -10.4375 Z M 1.046875 -2.578125 C 2.003906 -2.898438 2.410156 -3.546875 2.265625 -4.515625 C 2.265625 -4.578125 2.25 -4.648438 2.21875 -4.734375 C 2.164062 -5.253906 2.054688 -5.65625 1.890625 -5.9375 C 1.722656 -6.21875 1.351562 -6.207031 0.78125 -5.90625 C -0.644531 -5.09375 -1.960938 -4.144531 -3.171875 -3.0625 C -3.253906 -2.96875 -3.328125 -2.878906 -3.390625 -2.796875 C -3.390625 -2.796875 -3.40625 -2.773438 -3.4375 -2.734375 C -3.519531 -2.628906 -3.53125 -2.503906 -3.46875 -2.359375 C -3.414062 -2.222656 -3.296875 -2.15625 -3.109375 -2.15625 C -1.691406 -1.9375 -0.304688 -2.078125 1.046875 -2.578125 Z M 1.046875 -2.578125 "/></g></g></g><g fill="#737373" fill-opacity="1"><g transform="translate(499.207167, 93.250691)"><g><path d="M 11.734375 -7.90625 C 10.941406 -7.125 10.015625 -6.453125 8.953125 -5.890625 C 7.898438 -5.335938 7.015625 -4.972656 6.296875 -4.796875 C 5.585938 -4.628906 4.851562 -4.535156 4.09375 -4.515625 C 2.882812 -4.453125 1.773438 -4.613281 0.765625 -5 C -0.898438 -5.675781 -1.476562 -6.957031 -0.96875 -8.84375 C -0.488281 -10.476562 0.484375 -11.753906 1.953125 -12.671875 C 3.421875 -13.597656 4.9375 -14.046875 6.5 -14.015625 C 6.5 -14.015625 6.515625 -14.015625 6.546875 -14.015625 C 6.941406 -14.046875 7.316406 -14.019531 7.671875 -13.9375 C 8.273438 -13.71875 8.660156 -13.359375 8.828125 -12.859375 C 8.992188 -12.367188 8.882812 -11.820312 8.5 -11.21875 C 7.625 -9.882812 6.429688 -9.144531 4.921875 -9 C 3.921875 -8.894531 2.953125 -8.941406 2.015625 -9.140625 C 1.835938 -9.171875 1.679688 -9.125 1.546875 -9 C 1.410156 -8.875 1.328125 -8.722656 1.296875 -8.546875 C 1.023438 -7.359375 1.390625 -6.601562 2.390625 -6.28125 C 3.617188 -5.851562 4.898438 -5.851562 6.234375 -6.28125 C 7.773438 -6.757812 9.238281 -7.660156 10.625 -8.984375 C 12.007812 -10.316406 12.804688 -10.9375 13.015625 -10.84375 C 13.234375 -10.757812 13.300781 -10.507812 13.21875 -10.09375 C 13.019531 -9.414062 12.523438 -8.6875 11.734375 -7.90625 Z M 2.96875 -11.21875 C 2.882812 -11.125 2.820312 -11.015625 2.78125 -10.890625 C 2.75 -10.773438 2.796875 -10.671875 2.921875 -10.578125 C 3.398438 -10.304688 3.921875 -10.207031 4.484375 -10.28125 C 5.046875 -10.351562 5.519531 -10.5625 5.90625 -10.90625 C 6.300781 -11.257812 6.472656 -11.691406 6.421875 -12.203125 C 6.378906 -12.378906 6.28125 -12.492188 6.125 -12.546875 C 5.976562 -12.597656 5.832031 -12.609375 5.6875 -12.578125 C 4.664062 -12.398438 3.757812 -11.945312 2.96875 -11.21875 Z M 2.96875 -11.21875 "/></g></g></g><g fill="#737373" fill-opacity="1"><g transform="translate(511.187304, 93.250691)"><g><path d="M 16.296875 -10.265625 C 16.515625 -9.992188 16.238281 -9.492188 15.46875 -8.765625 C 14.707031 -8.035156 13.894531 -7.425781 13.03125 -6.9375 C 12.164062 -6.445312 11.164062 -5.953125 10.03125 -5.453125 C 9.269531 -5.117188 8.460938 -5.007812 7.609375 -5.125 C 6.765625 -5.238281 6.34375 -5.753906 6.34375 -6.671875 C 6.34375 -7.585938 6.554688 -8.5 6.984375 -9.40625 C 7.398438 -10.34375 7.488281 -10.820312 7.25 -10.84375 C 7.007812 -10.875 6.515625 -10.648438 5.765625 -10.171875 C 3.796875 -8.878906 1.96875 -7.40625 0.28125 -5.75 C -0.164062 -5.195312 -0.738281 -4.894531 -1.4375 -4.84375 C -1.789062 -4.84375 -2.066406 -4.953125 -2.265625 -5.171875 C -2.472656 -5.398438 -2.5 -5.644531 -2.34375 -5.90625 C -1.132812 -8.144531 0.0820312 -10.351562 1.3125 -12.53125 C 1.59375 -12.988281 2.003906 -13.269531 2.546875 -13.375 C 2.785156 -13.414062 3.003906 -13.34375 3.203125 -13.15625 C 3.398438 -12.976562 3.5 -12.769531 3.5 -12.53125 C 3.46875 -12.3125 3.378906 -12.050781 3.234375 -11.75 C 3.160156 -11.570312 3.09375 -11.398438 3.03125 -11.234375 C 2.96875 -11.066406 2.945312 -10.925781 2.96875 -10.8125 C 2.988281 -10.707031 3.078125 -10.675781 3.234375 -10.71875 C 3.441406 -10.832031 3.644531 -10.953125 3.84375 -11.078125 C 4.363281 -11.378906 4.867188 -11.664062 5.359375 -11.9375 C 5.773438 -12.1875 6.21875 -12.40625 6.6875 -12.59375 C 7.15625 -12.789062 7.644531 -12.921875 8.15625 -12.984375 C 8.976562 -13.046875 9.5625 -12.863281 9.90625 -12.4375 C 10.25 -12.007812 10.289062 -11.414062 10.03125 -10.65625 C 9.75 -9.976562 9.457031 -9.300781 9.15625 -8.625 C 8.789062 -7.988281 8.726562 -7.503906 8.96875 -7.171875 C 9.21875 -6.847656 10.363281 -7.226562 12.40625 -8.3125 L 13.953125 -9.21875 C 15.410156 -10.15625 16.191406 -10.503906 16.296875 -10.265625 Z M 16.296875 -10.265625 "/></g></g></g></svg>